<?xml version="1.0" encoding="utf-8" standalone="no"?>
<!DOCTYPE svg PUBLIC "-//W3C//DTD SVG 1.1//EN"
  "http://www.w3.org/Graphics/SVG/1.1/DTD/svg11.dtd">
<svg xmlns:xlink="http://www.w3.org/1999/xlink" width="462.75457pt" height="229.86318pt" viewBox="0 0 462.75457 229.86318" xmlns="http://www.w3.org/2000/svg" version="1.1">
 <metadata>
  <rdf:RDF xmlns:dc="http://purl.org/dc/elements/1.1/" xmlns:cc="http://creativecommons.org/ns#" xmlns:rdf="http://www.w3.org/1999/02/22-rdf-syntax-ns#">
   <cc:Work>
    <dc:type rdf:resource="http://purl.org/dc/dcmitype/StillImage"/>
    <dc:date>2026-07-24T14:47:51.335654</dc:date>
    <dc:format>image/svg+xml</dc:format>
    <dc:creator>
     <cc:Agent>
      <dc:title>Matplotlib v3.11.1, https://matplotlib.org/</dc:title>
     </cc:Agent>
    </dc:creator>
   </cc:Work>
  </rdf:RDF>
 </metadata>
 <defs>
  <style type="text/css">*{stroke-linejoin: round; stroke-linecap: butt}</style>
 </defs>
 <g id="figure_1">
  <g id="patch_1">
   <path d="M 0 229.86318 
L 462.75457 229.86318 
L 462.75457 0 
L 0 0 
z
" style="fill: #ffffff"/>
  </g>
  <g id="axes_1">
   <g id="patch_2">
    <path d="M 53.79457 192.662438 
L 455.55457 192.662438 
L 455.55457 20.798437 
L 53.79457 20.798437 
z
" style="fill: #ffffff"/>
   </g>
   <g id="matplotlib.axis_1">
    <g id="xtick_1">
     <g id="line2d_1">
      <path d="M 53.79457 192.662438 
L 53.79457 20.798437 
" clip-path="url(#p22908beae6)" style="fill: none; stroke: #b0b0b0; stroke-opacity: 0.22; stroke-width: 0.5; stroke-linecap: square"/>
     </g>
     <g id="line2d_2">
      <defs>
       <path id="m72046e4aae" d="M 0 0 
L 0 3.5 
" style="stroke: #666666; stroke-width: 0.8"/>
      </defs>
      <g>
       <use xlink:href="#m72046e4aae" x="53.79457" y="192.662438" style="fill: #666666; stroke: #666666; stroke-width: 0.8"/>
      </g>
     </g>
     <g id="text_1">
      <text style="font-size: 9.5px; font-family: 'DejaVu Sans', 'Bitstream Vera Sans', 'Computer Modern Sans Serif', 'Lucida Grande', 'Verdana', 'Geneva', 'Lucid', 'Arial', 'Helvetica', 'Avant Garde', sans-serif; text-anchor: middle; fill: #666666" x="53.79457" y="206.880211" transform="rotate(-0 53.79457 206.880211)">0</text>
     </g>
    </g>
    <g id="xtick_2">
     <g id="line2d_3">
      <path d="M 137.49457 192.662438 
L 137.49457 20.798437 
" clip-path="url(#p22908beae6)" style="fill: none; stroke: #b0b0b0; stroke-opacity: 0.22; stroke-width: 0.5; stroke-linecap: square"/>
     </g>
     <g id="line2d_4">
      <g>
       <use xlink:href="#m72046e4aae" x="137.49457" y="192.662438" style="fill: #666666; stroke: #666666; stroke-width: 0.8"/>
      </g>
     </g>
     <g id="text_2">
      <text style="font-size: 9.5px; font-family: 'DejaVu Sans', 'Bitstream Vera Sans', 'Computer Modern Sans Serif', 'Lucida Grande', 'Verdana', 'Geneva', 'Lucid', 'Arial', 'Helvetica', 'Avant Garde', sans-serif; text-anchor: middle; fill: #666666" x="137.49457" y="206.880211" transform="rotate(-0 137.49457 206.880211)">5000</text>
     </g>
    </g>
    <g id="xtick_3">
     <g id="line2d_5">
      <path d="M 221.19457 192.662438 
L 221.19457 20.798437 
" clip-path="url(#p22908beae6)" style="fill: none; stroke: #b0b0b0; stroke-opacity: 0.22; stroke-width: 0.5; stroke-linecap: square"/>
     </g>
     <g id="line2d_6">
      <g>
       <use xlink:href="#m72046e4aae" x="221.19457" y="192.662438" style="fill: #666666; stroke: #666666; stroke-width: 0.8"/>
      </g>
     </g>
     <g id="text_3">
      <text style="font-size: 9.5px; font-family: 'DejaVu Sans', 'Bitstream Vera Sans', 'Computer Modern Sans Serif', 'Lucida Grande', 'Verdana', 'Geneva', 'Lucid', 'Arial', 'Helvetica', 'Avant Garde', sans-serif; text-anchor: middle; fill: #666666" x="221.19457" y="206.880211" transform="rotate(-0 221.19457 206.880211)">10000</text>
     </g>
    </g>
    <g id="xtick_4">
     <g id="line2d_7">
      <path d="M 304.89457 192.662438 
L 304.89457 20.798437 
" clip-path="url(#p22908beae6)" style="fill: none; stroke: #b0b0b0; stroke-opacity: 0.22; stroke-width: 0.5; stroke-linecap: square"/>
     </g>
     <g id="line2d_8">
      <g>
       <use xlink:href="#m72046e4aae" x="304.89457" y="192.662438" style="fill: #666666; stroke: #666666; stroke-width: 0.8"/>
      </g>
     </g>
     <g id="text_4">
      <text style="font-size: 9.5px; font-family: 'DejaVu Sans', 'Bitstream Vera Sans', 'Computer Modern Sans Serif', 'Lucida Grande', 'Verdana', 'Geneva', 'Lucid', 'Arial', 'Helvetica', 'Avant Garde', sans-serif; text-anchor: middle; fill: #666666" x="304.89457" y="206.880211" transform="rotate(-0 304.89457 206.880211)">15000</text>
     </g>
    </g>
    <g id="xtick_5">
     <g id="line2d_9">
      <path d="M 388.59457 192.662438 
L 388.59457 20.798437 
" clip-path="url(#p22908beae6)" style="fill: none; stroke: #b0b0b0; stroke-opacity: 0.22; stroke-width: 0.5; stroke-linecap: square"/>
     </g>
     <g id="line2d_10">
      <g>
       <use xlink:href="#m72046e4aae" x="388.59457" y="192.662438" style="fill: #666666; stroke: #666666; stroke-width: 0.8"/>
      </g>
     </g>
     <g id="text_5">
      <text style="font-size: 9.5px; font-family: 'DejaVu Sans', 'Bitstream Vera Sans', 'Computer Modern Sans Serif', 'Lucida Grande', 'Verdana', 'Geneva', 'Lucid', 'Arial', 'Helvetica', 'Avant Garde', sans-serif; text-anchor: middle; fill: #666666" x="388.59457" y="206.880211" transform="rotate(-0 388.59457 206.880211)">20000</text>
     </g>
    </g>
    <g id="text_6">
     <text style="font-size: 9.5px; font-family: 'DejaVu Sans', 'Bitstream Vera Sans', 'Computer Modern Sans Serif', 'Lucida Grande', 'Verdana', 'Geneva', 'Lucid', 'Arial', 'Helvetica', 'Avant Garde', sans-serif; text-anchor: middle; fill: #1a1a1a" x="254.67457" y="220.380953" transform="rotate(-0 254.67457 220.380953)">frequency (Hz)</text>
    </g>
   </g>
   <g id="matplotlib.axis_2">
    <g id="ytick_1">
     <g id="line2d_11">
      <path d="M 53.79457 178.802437 
L 455.55457 178.802437 
" clip-path="url(#p22908beae6)" style="fill: none; stroke: #b0b0b0; stroke-opacity: 0.22; stroke-width: 0.5; stroke-linecap: square"/>
     </g>
     <g id="line2d_12">
      <defs>
       <path id="mffdcf86e60" d="M 0 0 
L -3.5 0 
" style="stroke: #666666; stroke-width: 0.8"/>
      </defs>
      <g>
       <use xlink:href="#mffdcf86e60" x="53.79457" y="178.802437" style="fill: #666666; stroke: #666666; stroke-width: 0.8"/>
      </g>
     </g>
     <g id="text_7">
      <text style="font-size: 9.5px; font-family: 'DejaVu Sans', 'Bitstream Vera Sans', 'Computer Modern Sans Serif', 'Lucida Grande', 'Verdana', 'Geneva', 'Lucid', 'Arial', 'Helvetica', 'Avant Garde', sans-serif; text-anchor: end; fill: #666666" x="46.79457" y="182.411324" transform="rotate(-0 46.79457 182.411324)">−100</text>
     </g>
    </g>
    <g id="ytick_2">
     <g id="line2d_13">
      <path d="M 53.79457 151.082437 
L 455.55457 151.082437 
" clip-path="url(#p22908beae6)" style="fill: none; stroke: #b0b0b0; stroke-opacity: 0.22; stroke-width: 0.5; stroke-linecap: square"/>
     </g>
     <g id="line2d_14">
      <g>
       <use xlink:href="#mffdcf86e60" x="53.79457" y="151.082437" style="fill: #666666; stroke: #666666; stroke-width: 0.8"/>
      </g>
     </g>
     <g id="text_8">
      <text style="font-size: 9.5px; font-family: 'DejaVu Sans', 'Bitstream Vera Sans', 'Computer Modern Sans Serif', 'Lucida Grande', 'Verdana', 'Geneva', 'Lucid', 'Arial', 'Helvetica', 'Avant Garde', sans-serif; text-anchor: end; fill: #666666" x="46.79457" y="154.691324" transform="rotate(-0 46.79457 154.691324)">−80</text>
     </g>
    </g>
    <g id="ytick_3">
     <g id="line2d_15">
      <path d="M 53.79457 123.362437 
L 455.55457 123.362437 
" clip-path="url(#p22908beae6)" style="fill: none; stroke: #b0b0b0; stroke-opacity: 0.22; stroke-width: 0.5; stroke-linecap: square"/>
     </g>
     <g id="line2d_16">
      <g>
       <use xlink:href="#mffdcf86e60" x="53.79457" y="123.362437" style="fill: #666666; stroke: #666666; stroke-width: 0.8"/>
      </g>
     </g>
     <g id="text_9">
      <text style="font-size: 9.5px; font-family: 'DejaVu Sans', 'Bitstream Vera Sans', 'Computer Modern Sans Serif', 'Lucida Grande', 'Verdana', 'Geneva', 'Lucid', 'Arial', 'Helvetica', 'Avant Garde', sans-serif; text-anchor: end; fill: #666666" x="46.79457" y="126.971324" transform="rotate(-0 46.79457 126.971324)">−60</text>
     </g>
    </g>
    <g id="ytick_4">
     <g id="line2d_17">
      <path d="M 53.79457 95.642437 
L 455.55457 95.642437 
" clip-path="url(#p22908beae6)" style="fill: none; stroke: #b0b0b0; stroke-opacity: 0.22; stroke-width: 0.5; stroke-linecap: square"/>
     </g>
     <g id="line2d_18">
      <g>
       <use xlink:href="#mffdcf86e60" x="53.79457" y="95.642437" style="fill: #666666; stroke: #666666; stroke-width: 0.8"/>
      </g>
     </g>
     <g id="text_10">
      <text style="font-size: 9.5px; font-family: 'DejaVu Sans', 'Bitstream Vera Sans', 'Computer Modern Sans Serif', 'Lucida Grande', 'Verdana', 'Geneva', 'Lucid', 'Arial', 'Helvetica', 'Avant Garde', sans-serif; text-anchor: end; fill: #666666" x="46.79457" y="99.251324" transform="rotate(-0 46.79457 99.251324)">−40</text>
     </g>
    </g>
    <g id="ytick_5">
     <g id="line2d_19">
      <path d="M 53.79457 67.922437 
L 455.55457 67.922437 
" clip-path="url(#p22908beae6)" style="fill: none; stroke: #b0b0b0; stroke-opacity: 0.22; stroke-width: 0.5; stroke-linecap: square"/>
     </g>
     <g id="line2d_20">
      <g>
       <use xlink:href="#mffdcf86e60" x="53.79457" y="67.922437" style="fill: #666666; stroke: #666666; stroke-width: 0.8"/>
      </g>
     </g>
     <g id="text_11">
      <text style="font-size: 9.5px; font-family: 'DejaVu Sans', 'Bitstream Vera Sans', 'Computer Modern Sans Serif', 'Lucida Grande', 'Verdana', 'Geneva', 'Lucid', 'Arial', 'Helvetica', 'Avant Garde', sans-serif; text-anchor: end; fill: #666666" x="46.79457" y="71.531324" transform="rotate(-0 46.79457 71.531324)">−20</text>
     </g>
    </g>
    <g id="ytick_6">
     <g id="line2d_21">
      <path d="M 53.79457 40.202437 
L 455.55457 40.202437 
" clip-path="url(#p22908beae6)" style="fill: none; stroke: #b0b0b0; stroke-opacity: 0.22; stroke-width: 0.5; stroke-linecap: square"/>
     </g>
     <g id="line2d_22">
      <g>
       <use xlink:href="#mffdcf86e60" x="53.79457" y="40.202437" style="fill: #666666; stroke: #666666; stroke-width: 0.8"/>
      </g>
     </g>
     <g id="text_12">
      <text style="font-size: 9.5px; font-family: 'DejaVu Sans', 'Bitstream Vera Sans', 'Computer Modern Sans Serif', 'Lucida Grande', 'Verdana', 'Geneva', 'Lucid', 'Arial', 'Helvetica', 'Avant Garde', sans-serif; text-anchor: end; fill: #666666" x="46.79457" y="43.811324" transform="rotate(-0 46.79457 43.811324)">0</text>
     </g>
    </g>
    <g id="text_13">
     <text style="font-size: 9.5px; font-family: 'DejaVu Sans', 'Bitstream Vera Sans', 'Computer Modern Sans Serif', 'Lucida Grande', 'Verdana', 'Geneva', 'Lucid', 'Arial', 'Helvetica', 'Avant Garde', sans-serif; text-anchor: middle; fill: #1a1a1a" x="14.418516" y="106.730437" transform="rotate(-90 14.418516 106.730437)">level re fundamental (dB)</text>
    </g>
   </g>
   <g id="line2d_23">
    <path d="M 53.79457 213.604427 
L 53.848391 230.86318 
M 54.567741 230.86318 
L 54.59809 113.061118 
L 54.628439 230.86318 
M 55.373238 230.86318 
L 55.40161 128.935044 
L 55.429983 230.86318 
M 56.178778 230.86318 
L 56.20513 145.156361 
L 56.231483 230.86318 
M 56.983347 230.86318 
L 57.00865 160.91888 
L 57.033954 230.86318 
M 57.788058 230.86318 
L 57.81217 176.225523 
L 57.836283 230.86318 
M 58.593138 230.86318 
L 58.61569 191.231295 
L 58.638243 230.86318 
M 59.398811 230.86318 
L 59.41921 206.065578 
L 59.439609 230.86318 
M 60.205519 230.86318 
L 60.22273 220.813301 
L 60.239942 230.86318 
M 63.7787 230.86318 
L 63.78835 226.052706 
L 63.798001 230.86318 
M 64.572374 230.86318 
L 64.59187 210.922934 
L 64.611367 230.86318 
M 65.373415 230.86318 
L 65.39539 195.753691 
L 65.417365 230.86318 
M 66.175193 230.86318 
L 66.19891 180.479954 
L 66.222628 230.86318 
M 66.977413 230.86318 
L 67.00243 164.982664 
L 67.027448 230.86318 
M 67.779913 230.86318 
L 67.80595 149.046018 
L 67.831987 230.86318 
M 68.58152 230.86318 
L 68.60947 132.331813 
L 68.63742 230.86318 
M 69.382814 230.86318 
L 69.41299 114.380273 
L 69.443165 230.86318 
M 70.183493 230.86318 
L 70.21651 91.590412 
L 70.249528 230.86318 
M 70.98903 230.86318 
L 71.02003 107.810596 
L 71.051031 230.86318 
M 71.794235 230.86318 
L 71.82355 121.404587 
L 71.852865 230.86318 
M 72.599683 230.86318 
L 72.62707 136.8157 
L 72.654458 230.86318 
M 73.404756 230.86318 
L 73.43059 152.556723 
L 73.456425 230.86318 
M 74.209322 230.86318 
L 74.23411 168.057143 
L 74.258898 230.86318 
M 75.014193 230.86318 
L 75.03763 183.289834 
L 75.061068 230.86318 
M 75.819533 230.86318 
L 75.84115 198.337437 
L 75.862767 230.86318 
M 76.625658 230.86318 
L 76.64467 213.278739 
L 76.663683 230.86318 
M 77.44279 230.86318 
L 77.44819 228.171184 
L 77.453591 230.86318 
M 80.995442 230.86318 
L 81.01381 216.181539 
L 81.032179 230.86318 
M 81.79613 230.86318 
L 81.81733 201.156764 
L 81.83853 230.86318 
M 82.597705 230.86318 
L 82.62085 186.066034 
L 82.643995 230.86318 
M 83.399799 230.86318 
L 83.42437 170.812897 
L 83.448942 230.86318 
M 84.202216 230.86318 
L 84.22789 155.202826 
L 84.253564 230.86318 
M 85.004283 230.86318 
L 85.03141 138.829384 
L 85.058536 230.86318 
M 85.805564 230.86318 
L 85.83493 120.903381 
L 85.864296 230.86318 
M 86.606383 230.86318 
L 86.63845 99.280508 
L 86.670519 230.86318 
M 87.398043 230.86318 
L 87.40849 223.496988 
L 87.44197 80.511019 
L 87.485896 230.86318 
M 88.215477 230.86318 
L 88.24549 115.821633 
L 88.275502 230.86318 
M 89.021093 230.86318 
L 89.04901 132.380703 
L 89.07693 230.86318 
M 89.826445 230.86318 
L 89.85253 148.185001 
L 89.878616 230.86318 
M 90.63095 230.86318 
L 90.65605 163.840019 
L 90.68115 230.86318 
M 91.435735 230.86318 
L 91.45957 179.248732 
L 91.483406 230.86318 
M 92.24094 230.86318 
L 92.26309 194.430207 
L 92.285241 230.86318 
M 93.046826 230.86318 
L 93.06661 209.442883 
L 93.086395 230.86318 
M 93.857047 230.86318 
L 93.87013 224.342586 
L 93.883214 230.86318 
M 97.420406 230.86318 
L 97.43575 223.214085 
L 97.451095 230.86318 
M 98.219237 230.86318 
L 98.23927 208.115532 
L 98.259303 230.86318 
M 99.020453 230.86318 
L 99.04279 192.968816 
L 99.065128 230.86318 
M 99.822332 230.86318 
L 99.84631 177.711362 
L 99.870289 230.86318 
M 100.624616 230.86318 
L 100.64983 162.20977 
L 100.675045 230.86318 
M 101.427077 230.86318 
L 101.45335 146.147428 
L 101.479626 230.86318 
M 102.22848 230.86318 
L 102.25687 128.745782 
L 102.28526 230.86318 
M 103.029456 230.86318 
L 103.06039 108.197415 
L 103.091321 230.86318 
M 103.809043 230.86318 
L 103.83043 216.953439 
L 103.86391 73.964342 
L 103.918781 230.86318 
M 104.635806 230.86318 
L 104.66743 102.864664 
L 104.699053 230.86318 
M 105.442118 230.86318 
L 105.47095 125.424285 
L 105.499781 230.86318 
M 106.247774 230.86318 
L 106.27447 142.14536 
L 106.301169 230.86318 
M 107.052492 230.86318 
L 107.07799 157.97777 
L 107.103489 230.86318 
M 107.857161 230.86318 
L 107.88151 173.502601 
L 107.905859 230.86318 
M 108.66219 230.86318 
L 108.68503 188.795377 
L 108.707871 230.86318 
M 109.467786 230.86318 
L 109.48855 203.904612 
L 109.509315 230.86318 
M 110.274354 230.86318 
L 110.29207 218.875466 
L 110.309787 230.86318 
M 113.856492 230.86318 
L 113.85769 230.265766 
L 113.858889 230.86318 
M 114.642604 230.86318 
L 114.66121 215.137873 
L 114.679817 230.86318 
M 115.443348 230.86318 
L 115.46473 199.948488 
L 115.486112 230.86318 
M 116.244955 230.86318 
L 116.26825 184.662105 
L 116.291545 230.86318 
M 117.047071 230.86318 
L 117.07177 169.199099 
L 117.09647 230.86318 
M 117.849504 230.86318 
L 117.87529 153.365848 
L 117.901076 230.86318 
M 118.651406 230.86318 
L 118.67881 136.604537 
L 118.706213 230.86318 
M 119.452524 230.86318 
L 119.48233 117.361902 
L 119.512136 230.86318 
M 120.252792 230.86318 
L 120.28585 91.279791 
L 120.318909 230.86318 
M 121.053247 230.86318 
L 121.05589 229.000748 
L 121.08937 86.018597 
L 121.125491 230.86318 
M 121.862863 230.86318 
L 121.89289 115.614173 
L 121.922919 230.86318 
M 122.6688 230.86318 
L 122.69641 134.842098 
L 122.724023 230.86318 
M 123.474025 230.86318 
L 123.49993 151.342984 
L 123.525836 230.86318 
M 124.27859 230.86318 
L 124.30345 167.108473 
L 124.328311 230.86318 
M 125.083459 230.86318 
L 125.10697 182.569091 
L 125.130481 230.86318 
M 125.888803 230.86318 
L 125.91049 197.840922 
L 125.932178 230.86318 
M 126.694934 230.86318 
L 126.71401 212.977751 
L 126.733086 230.86318 
M 127.511818 230.86318 
L 127.51753 228.019337 
L 127.523243 230.86318 
M 131.066142 230.86318 
L 131.08315 221.550636 
L 131.100159 230.86318 
M 131.866328 230.86318 
L 131.88667 206.390132 
L 131.907012 230.86318 
M 132.667625 230.86318 
L 132.69019 191.128961 
L 132.712756 230.86318 
M 133.469553 230.86318 
L 133.49371 175.720109 
L 133.517868 230.86318 
M 134.27187 230.86318 
L 134.29723 160.07198 
L 134.322591 230.86318 
M 135.074435 230.86318 
L 135.10075 143.910564 
L 135.127066 230.86318 
M 135.875321 230.86318 
L 135.90427 126.246567 
L 135.933242 230.86318 
M 136.676104 230.86318 
L 136.70779 103.837345 
L 136.739512 230.86318 
M 137.300465 230.86318 
L 137.44435 202.56681 
L 137.47783 183.191314 
L 137.51131 40.202437 
L 137.57827 202.56696 
L 137.722107 230.86318 
M 138.283591 230.86318 
L 138.31483 104.490287 
L 138.34609 230.86318 
M 139.089841 230.86318 
L 139.11835 126.596568 
L 139.146865 230.86318 
M 139.894844 230.86318 
L 139.92187 144.292051 
L 139.948872 230.86318 
M 140.700057 230.86318 
L 140.72539 160.474715 
L 140.750724 230.86318 
M 141.504788 230.86318 
L 141.52891 176.119826 
L 141.553032 230.86318 
M 142.309913 230.86318 
L 142.33243 191.522698 
L 142.354947 230.86318 
M 143.115679 230.86318 
L 143.13595 206.79453 
L 143.156222 230.86318 
M 143.922576 230.86318 
L 143.93947 221.981093 
L 143.956365 230.86318 
M 147.498371 230.86318 
L 147.50509 227.510838 
L 147.511809 230.86318 
M 148.289435 230.86318 
L 148.30861 212.509401 
L 148.327785 230.86318 
M 149.09038 230.86318 
L 149.11213 197.397025 
L 149.13388 230.86318 
M 149.892097 230.86318 
L 149.91565 182.143872 
L 149.939204 230.86318 
M 150.694279 230.86318 
L 150.71917 166.697923 
L 150.744061 230.86318 
M 151.496763 230.86318 
L 151.52269 150.967278 
L 151.548618 230.86318 
M 152.298554 230.86318 
L 152.32621 134.602025 
L 152.353865 230.86318 
M 153.099706 230.86318 
L 153.12973 115.617737 
L 153.159754 230.86318 
M 153.895773 230.86318 
L 153.89977 228.044796 
L 153.93325 85.059963 
L 153.97073 230.86318 
M 154.703922 230.86318 
L 154.73677 92.976035 
L 154.769618 230.86318 
M 155.510588 230.86318 
L 155.54029 118.213915 
L 155.569994 230.86318 
M 156.316493 230.86318 
L 156.34381 137.288338 
L 156.371129 230.86318 
M 157.121585 230.86318 
L 157.14733 154.042628 
L 157.173075 230.86318 
M 157.926204 230.86318 
L 157.95085 169.877038 
L 157.975496 230.86318 
M 158.731147 230.86318 
L 158.75437 185.336645 
L 158.777594 230.86318 
M 159.536609 230.86318 
L 159.55789 200.623668 
L 159.579171 230.86318 
M 160.34296 230.86318 
L 160.36141 215.822718 
L 160.379861 230.86318 
M 164.712702 230.86318 
L 164.73055 218.346353 
L 164.748399 230.86318 
M 165.513229 230.86318 
L 165.53407 203.429938 
L 165.554912 230.86318 
M 166.314702 230.86318 
L 166.33759 188.377995 
L 166.360478 230.86318 
M 167.116731 230.86318 
L 167.14111 173.139378 
L 167.16549 230.86318 
M 167.919112 230.86318 
L 167.94463 157.669402 
L 167.970148 230.86318 
M 168.721422 230.86318 
L 168.74815 141.947808 
L 168.774877 230.86318 
M 169.522874 230.86318 
L 169.55167 125.662643 
L 169.580468 230.86318 
M 170.323674 230.86318 
L 170.35519 103.707573 
L 170.386707 230.86318 
M 171.111457 230.86318 
L 171.12523 221.14794 
L 171.15871 78.159065 
L 171.205962 230.86318 
M 171.931514 230.86318 
L 171.96223 109.952815 
L 171.992949 230.86318 
M 172.737523 230.86318 
L 172.76575 130.055071 
L 172.793979 230.86318 
M 173.543139 230.86318 
L 173.56927 147.34343 
L 173.595402 230.86318 
M 174.347657 230.86318 
L 174.37279 163.378234 
L 174.397923 230.86318 
M 175.152439 230.86318 
L 175.17631 178.864193 
L 175.200182 230.86318 
M 175.957638 230.86318 
L 175.97983 194.107886 
L 176.002023 230.86318 
M 176.763528 230.86318 
L 176.78335 209.244404 
L 176.803173 230.86318 
M 177.573781 230.86318 
L 177.58687 224.339136 
L 177.599959 230.86318 
M 181.139373 230.86318 
L 181.15249 224.325142 
L 181.165607 230.86318 
M 181.936234 230.86318 
L 181.95601 209.488888 
L 181.975786 230.86318 
M 182.737395 230.86318 
L 182.75953 194.546562 
L 182.781666 230.86318 
M 183.539233 230.86318 
L 183.56305 179.435809 
L 183.586868 230.86318 
M 184.341488 230.86318 
L 184.36657 164.088377 
L 184.391653 230.86318 
M 185.144022 230.86318 
L 185.17009 148.482848 
L 185.196159 230.86318 
M 185.945741 230.86318 
L 185.97361 132.802787 
L 186.001477 230.86318 
M 186.747291 230.86318 
L 186.77713 117.259643 
L 186.806972 230.86318 
M 187.53723 230.86318 
L 187.54717 223.853431 
L 187.58065 80.866615 
L 187.624072 230.86318 
M 188.352507 230.86318 
L 188.38417 102.561046 
L 188.415832 230.86318 
M 189.158616 230.86318 
L 189.18769 123.236953 
L 189.216766 230.86318 
M 189.964338 230.86318 
L 189.99121 140.882129 
L 190.018084 230.86318 
M 190.769181 230.86318 
L 190.79473 157.19073 
L 190.820279 230.86318 
M 191.573842 230.86318 
L 191.59825 172.797264 
L 191.622659 230.86318 
M 192.378846 230.86318 
L 192.40177 188.061106 
L 192.424694 230.86318 
M 193.184406 230.86318 
L 193.20529 203.166769 
L 193.226174 230.86318 
M 193.990928 230.86318 
L 194.00881 218.209632 
L 194.026693 230.86318 
M 197.571276 230.86318 
L 197.57443 229.290913 
L 197.577585 230.86318 
M 198.359187 230.86318 
L 198.37795 214.431531 
L 198.396714 230.86318 
M 199.160025 230.86318 
L 199.18147 199.52265 
L 199.202916 230.86318 
M 199.961678 230.86318 
L 199.98499 184.501796 
L 200.008302 230.86318 
M 200.763817 230.86318 
L 200.78851 169.278534 
L 200.813204 230.86318 
M 201.566267 230.86318 
L 201.59203 153.744959 
L 201.617793 230.86318 
M 202.368293 230.86318 
L 202.39555 137.880744 
L 202.422807 230.86318 
M 203.169858 230.86318 
L 203.19907 122.203815 
L 203.228283 230.86318 
M 203.971944 230.86318 
L 204.00259 110.644875 
L 204.033237 230.86318 
M 204.77389 230.86318 
L 204.80611 98.00225 
L 204.838331 230.86318 
M 205.579877 230.86318 
L 205.60963 117.796142 
L 205.639384 230.86318 
M 206.385534 230.86318 
L 206.41315 135.012163 
L 206.440767 230.86318 
M 207.190768 230.86318 
L 207.21667 151.405432 
L 207.242572 230.86318 
M 207.995332 230.86318 
L 208.02019 167.138569 
L 208.045048 230.86318 
M 208.800188 230.86318 
L 208.82371 182.4589 
L 208.847232 230.86318 
M 209.605503 230.86318 
L 209.62723 197.557318 
L 209.648958 230.86318 
M 210.411584 230.86318 
L 210.43075 212.549913 
L 210.449916 230.86318 
M 211.227533 230.86318 
L 211.23427 227.504894 
L 211.241008 230.86318 
M 214.782538 230.86318 
L 214.79989 220.284515 
L 214.817243 230.86318 
M 215.582897 230.86318 
L 215.60341 205.404311 
L 215.623923 230.86318 
M 216.384284 230.86318 
L 216.40693 190.455989 
L 216.429576 230.86318 
M 217.18626 230.86318 
L 217.21045 175.350666 
L 217.23464 230.86318 
M 217.988601 230.86318 
L 218.01397 159.943077 
L 218.039339 230.86318 
M 218.791005 230.86318 
L 218.81749 144.025696 
L 218.843975 230.86318 
M 219.592463 230.86318 
L 219.62101 127.44098 
L 219.649556 230.86318 
M 220.393816 230.86318 
L 220.42453 110.265932 
L 220.455248 230.86318 
M 221.18267 230.86318 
L 221.19457 222.471053 
L 221.22805 79.484048 
L 221.273431 230.86318 
M 222.001472 230.86318 
L 222.03157 115.334658 
L 222.061663 230.86318 
M 222.806894 230.86318 
L 222.83509 130.196681 
L 222.863288 230.86318 
M 223.612384 230.86318 
L 223.63861 146.169134 
L 223.664838 230.86318 
M 224.416893 230.86318 
L 224.44213 161.883894 
L 224.467368 230.86318 
M 225.221627 230.86318 
L 225.24565 177.216976 
L 225.269674 230.86318 
M 226.026746 230.86318 
L 226.04917 192.274922 
L 226.071595 230.86318 
M 226.832486 230.86318 
L 226.85269 207.170738 
L 226.872894 230.86318 
M 227.63932 230.86318 
L 227.65621 221.98547 
L 227.673101 230.86318 
M 231.212639 230.86318 
L 231.22183 226.281305 
L 231.231022 230.86318 
M 232.005923 230.86318 
L 232.02535 211.272259 
L 232.044777 230.86318 
M 232.806959 230.86318 
L 232.82887 196.227401 
L 232.850781 230.86318 
M 233.608731 230.86318 
L 233.63239 181.078009 
L 233.65605 230.86318 
M 234.410945 230.86318 
L 234.43591 165.695218 
L 234.460876 230.86318 
M 235.213438 230.86318 
L 235.23943 149.831366 
L 235.265423 230.86318 
M 236.015089 230.86318 
L 236.04295 133.046751 
L 236.070811 230.86318 
M 236.816321 230.86318 
L 236.84647 114.580354 
L 236.876618 230.86318 
M 237.616698 230.86318 
L 237.64999 89.384216 
L 237.683282 230.86318 
M 238.42249 230.86318 
L 238.45351 107.666265 
L 238.48453 230.86318 
M 239.228082 230.86318 
L 239.25703 124.381401 
L 239.285978 230.86318 
M 240.033533 230.86318 
L 240.06055 139.772084 
L 240.087569 230.86318 
M 240.838411 230.86318 
L 240.86407 155.435762 
L 240.88973 230.86318 
M 241.643025 230.86318 
L 241.66759 170.886656 
L 241.692156 230.86318 
M 242.447966 230.86318 
L 242.47111 186.077045 
L 242.494254 230.86318 
M 243.253418 230.86318 
L 243.27463 201.074114 
L 243.295843 230.86318 
M 244.059729 230.86318 
L 244.07815 215.950849 
L 244.096572 230.86318 
M 244.881472 230.86318 
L 244.88167 230.764224 
L 244.881869 230.86318 
M 248.429173 230.86318 
L 248.44729 217.245703 
L 248.465408 230.86318 
M 249.229759 230.86318 
L 249.25081 202.112483 
L 249.271862 230.86318 
M 250.031278 230.86318 
L 250.05433 186.911818 
L 250.077383 230.86318 
M 250.833339 230.86318 
L 250.85785 171.548386 
L 250.882362 230.86318 
M 251.635735 230.86318 
L 251.66137 155.820719 
L 251.687006 230.86318 
M 252.437819 230.86318 
L 252.46489 139.279051 
L 252.49196 230.86318 
M 253.239053 230.86318 
L 253.26841 120.981221 
L 253.297767 230.86318 
M 254.03975 230.86318 
L 254.07193 98.365382 
L 254.104111 230.86318 
M 254.834128 230.86318 
L 254.84197 225.334082 
L 254.87545 82.348467 
L 254.916771 230.86318 
M 255.649029 230.86318 
L 255.67897 116.354406 
L 255.708911 230.86318 
M 256.454742 230.86318 
L 256.48249 133.754279 
L 256.510241 230.86318 
M 257.260007 230.86318 
L 257.28601 149.651984 
L 257.312013 230.86318 
M 258.064535 230.86318 
L 258.08953 165.290478 
L 258.114526 230.86318 
M 258.869353 230.86318 
L 258.89305 180.686297 
L 258.916748 230.86318 
M 259.67461 230.86318 
L 259.69657 195.867337 
L 259.71853 230.86318 
M 260.480586 230.86318 
L 260.50009 210.885507 
L 260.519595 230.86318 
M 261.293431 230.86318 
L 261.30361 225.789661 
L 261.31379 230.86318 
M 264.854151 230.86318 
L 264.86923 223.346648 
L 264.88431 230.86318 
M 265.652733 230.86318 
L 265.67275 208.198473 
L 265.692768 230.86318 
M 266.453936 230.86318 
L 266.47627 192.996902 
L 266.498604 230.86318 
M 267.255809 230.86318 
L 267.27979 177.68222 
L 267.303771 230.86318 
M 268.05809 230.86318 
L 268.08331 162.124448 
L 268.108531 230.86318 
M 268.860521 230.86318 
L 268.88683 146.002564 
L 268.913142 230.86318 
M 269.661931 230.86318 
L 269.69035 128.472919 
L 269.718768 230.86318 
M 270.462851 230.86318 
L 270.49387 107.478848 
L 270.524885 230.86318 
M 271.234409 230.86318 
L 271.26391 213.2855 
L 271.29739 70.296498 
L 271.360375 230.86318 
M 272.069319 230.86318 
L 272.10091 103.162432 
L 272.1325 230.86318 
M 272.875658 230.86318 
L 272.90443 125.956064 
L 272.9332 230.86318 
M 273.681386 230.86318 
L 273.70795 143.037848 
L 273.734518 230.86318 
M 274.486037 230.86318 
L 274.51147 158.967442 
L 274.536904 230.86318 
M 275.290729 230.86318 
L 275.31499 174.528032 
L 275.339252 230.86318 
M 276.095793 230.86318 
L 276.11851 189.854781 
L 276.141227 230.86318 
M 276.901449 230.86318 
L 276.92203 205.004453 
L 276.942611 230.86318 
M 277.708128 230.86318 
L 277.72555 220.018621 
L 277.742973 230.86318 
M 281.289532 230.86318 
L 281.29117 230.046818 
L 281.292808 230.86318 
M 282.076038 230.86318 
L 282.09469 214.932126 
L 282.113343 230.86318 
M 282.876798 230.86318 
L 282.89821 199.744772 
L 282.919623 230.86318 
M 283.678413 230.86318 
L 283.70173 184.450568 
L 283.725048 230.86318 
M 284.480533 230.86318 
L 284.50525 168.976827 
L 284.529967 230.86318 
M 285.282971 230.86318 
L 285.30877 153.143599 
L 285.33457 230.86318 
M 286.084862 230.86318 
L 286.11229 136.395905 
L 286.139718 230.86318 
M 286.885962 230.86318 
L 286.91581 117.033529 
L 286.945658 230.86318 
M 287.686125 230.86318 
L 287.71933 90.093393 
L 287.752536 230.86318 
M 288.488774 230.86318 
L 288.48937 230.442722 
L 288.52285 87.461895 
L 288.556925 230.86318 
M 289.29641 230.86318 
L 289.32637 116.137171 
L 289.356331 230.86318 
M 290.102354 230.86318 
L 290.12989 135.492788 
L 290.157429 230.86318 
M 290.907549 230.86318 
L 290.93341 152.097205 
L 290.959272 230.86318 
M 291.712129 230.86318 
L 291.73693 167.884495 
L 291.761732 230.86318 
M 292.517018 230.86318 
L 292.54045 183.346603 
L 292.563882 230.86318 
M 293.322394 230.86318 
L 293.34397 198.623418 
L 293.365546 230.86318 
M 294.128584 230.86318 
L 294.14749 213.774609 
L 294.166397 230.86318 
M 294.946938 230.86318 
L 294.95101 228.834091 
L 294.955083 230.86318 
M 298.499547 230.86318 
L 298.51663 221.284013 
L 298.533714 230.86318 
M 299.299767 230.86318 
L 299.32015 206.155137 
L 299.340534 230.86318 
M 300.101079 230.86318 
L 300.12367 190.910789 
L 300.146262 230.86318 
M 300.903014 230.86318 
L 300.92719 175.509345 
L 300.951366 230.86318 
M 301.705336 230.86318 
L 301.73071 159.869165 
L 301.756084 230.86318 
M 302.507856 230.86318 
L 302.53423 143.752104 
L 302.560594 230.86318 
M 303.308978 230.86318 
L 303.33775 126.185146 
L 303.366527 230.86318 
M 304.109702 230.86318 
L 304.14127 103.524794 
L 304.172845 230.86318 
M 304.845384 230.86318 
L 304.91131 201.568798 
L 304.94479 58.57994 
L 305.01175 220.944756 
L 305.044188 230.86318 
M 305.71707 230.86318 
L 305.74831 105.446409 
L 305.779559 230.86318 
M 306.523283 230.86318 
L 306.55183 127.206254 
L 306.580381 230.86318 
M 307.328808 230.86318 
L 307.35535 144.876638 
L 307.381885 230.86318 
M 308.133576 230.86318 
L 308.15887 161.050053 
L 308.184165 230.86318 
M 308.938318 230.86318 
L 308.96239 176.67019 
L 308.986463 230.86318 
M 309.743458 230.86318 
L 309.76591 192.04839 
L 309.788363 230.86318 
M 310.54925 230.86318 
L 310.56943 207.302106 
L 310.589611 230.86318 
M 311.3562 230.86318 
L 311.37295 222.48321 
L 311.389701 230.86318 
M 314.930915 230.86318 
L 314.93857 227.04706 
L 314.946226 230.86318 
M 315.722825 230.86318 
L 315.74209 212.069795 
L 315.761356 230.86318 
M 316.523803 230.86318 
L 316.54561 196.980976 
L 316.567418 230.86318 
M 317.325537 230.86318 
L 317.34913 181.742778 
L 317.372724 230.86318 
M 318.12773 230.86318 
L 318.15265 166.306119 
L 318.177571 230.86318 
M 318.930222 230.86318 
L 318.95617 150.603521 
L 318.982119 230.86318 
M 319.732014 230.86318 
L 319.75969 134.38354 
L 319.787364 230.86318 
M 320.5332 230.86318 
L 320.56321 115.75809 
L 320.59322 230.86318 
M 321.32795 230.86318 
L 321.33325 227.126276 
L 321.36673 84.141044 
L 321.405513 230.86318 
M 322.137618 230.86318 
L 322.17025 94.719731 
L 322.202882 230.86318 
M 322.944179 230.86318 
L 322.97377 119.100331 
L 323.003363 230.86318 
M 323.750055 230.86318 
L 323.77729 137.949318 
L 323.804527 230.86318 
M 324.555103 230.86318 
L 324.58081 154.655396 
L 324.606518 230.86318 
M 325.359731 230.86318 
L 325.38433 170.465502 
L 325.40893 230.86318 
M 326.164687 230.86318 
L 326.18785 185.900611 
L 326.211013 230.86318 
M 326.970172 230.86318 
L 326.99137 201.166691 
L 327.012569 230.86318 
M 327.776562 230.86318 
L 327.79489 216.353477 
L 327.813219 230.86318 
M 332.145997 230.86318 
L 332.16403 217.593956 
L 332.182064 230.86318 
M 332.946592 230.86318 
L 332.96755 202.703749 
L 332.988509 230.86318 
M 333.748104 230.86318 
L 333.77107 187.682363 
L 333.794037 230.86318 
M 334.550155 230.86318 
L 334.57459 172.47225 
L 334.599026 230.86318 
M 335.352551 230.86318 
L 335.37811 157.026888 
L 335.40367 230.86318 
M 336.15482 230.86318 
L 336.18163 141.369136 
L 336.208439 230.86318 
M 336.956335 230.86318 
L 336.98515 125.491359 
L 337.013967 230.86318 
M 337.757266 230.86318 
L 337.78867 104.59251 
L 337.820075 230.86318 
M 338.550214 230.86318 
L 338.55871 224.869756 
L 338.59219 81.880735 
L 338.634166 230.86318 
M 339.365179 230.86318 
L 339.39571 111.458147 
L 339.426244 230.86318 
M 340.171124 230.86318 
L 340.19923 131.056394 
L 340.227337 230.86318 
M 340.976665 230.86318 
L 341.00275 148.191798 
L 341.028835 230.86318 
M 341.781194 230.86318 
L 341.80627 164.172287 
L 341.831347 230.86318 
M 342.58599 230.86318 
L 342.60979 179.620863 
L 342.63359 230.86318 
M 343.391212 230.86318 
L 343.41331 194.829014 
L 343.435408 230.86318 
M 344.197139 230.86318 
L 344.21683 209.931539 
L 344.236521 230.86318 
M 345.008579 230.86318 
L 345.02035 224.995443 
L 345.032122 230.86318 
M 348.571438 230.86318 
L 348.58597 223.61991 
L 348.600503 230.86318 
M 349.369585 230.86318 
L 349.38949 208.803459 
L 349.409396 230.86318 
M 350.17079 230.86318 
L 350.19301 193.888644 
L 350.215231 230.86318 
M 350.972653 230.86318 
L 350.99653 178.806072 
L 351.020407 230.86318 
M 351.774924 230.86318 
L 351.80005 163.474515 
L 351.825176 230.86318 
M 352.577467 230.86318 
L 352.60357 147.857121 
L 352.629674 230.86318 
M 353.379143 230.86318 
L 353.40709 132.177777 
L 353.435035 230.86318 
M 354.180788 230.86318 
L 354.21061 117.453958 
L 354.240437 230.86318 
M 354.969955 230.86318 
L 354.98065 223.320814 
L 355.01413 80.333911 
L 355.058307 230.86318 
M 355.786286 230.86318 
L 355.81765 104.986707 
L 355.849013 230.86318 
M 356.592265 230.86318 
L 356.62117 124.586761 
L 356.650077 230.86318 
M 357.397942 230.86318 
L 357.42469 141.881345 
L 357.45144 230.86318 
M 358.202717 230.86318 
L 358.22821 158.058369 
L 358.253703 230.86318 
M 359.007389 230.86318 
L 359.03173 173.595469 
L 359.056072 230.86318 
M 359.812411 230.86318 
L 359.83525 188.802929 
L 359.85809 230.86318 
M 360.617998 230.86318 
L 360.63877 203.853594 
L 360.659543 230.86318 
M 361.424565 230.86318 
L 361.44229 218.841395 
L 361.460015 230.86318 
M 365.003561 230.86318 
L 365.00791 228.695427 
L 365.012259 230.86318 
M 365.79253 230.86318 
L 365.81143 213.804212 
L 365.83033 230.86318 
M 366.59341 230.86318 
L 366.61495 198.868586 
L 366.636491 230.86318 
M 367.395088 230.86318 
L 367.41847 183.82367 
L 367.441853 230.86318 
M 368.197242 230.86318 
L 368.22199 168.570177 
L 368.246739 230.86318 
M 368.999701 230.86318 
L 369.02551 152.974577 
L 369.05132 230.86318 
M 369.801656 230.86318 
L 369.82903 136.954254 
L 369.856404 230.86318 
M 370.603174 230.86318 
L 370.63255 120.867346 
L 370.661926 230.86318 
M 371.405085 230.86318 
L 371.43607 107.925165 
L 371.467055 230.86318 
M 372.207991 230.86318 
L 372.23959 102.994018 
L 372.271189 230.86318 
M 373.013553 230.86318 
L 373.04311 119.384735 
L 373.072669 230.86318 
M 373.819137 230.86318 
L 373.84663 135.99956 
L 373.874124 230.86318 
M 374.624295 230.86318 
L 374.65015 152.198756 
L 374.676006 230.86318 
M 375.428867 230.86318 
L 375.45367 167.861798 
L 375.478473 230.86318 
M 376.233738 230.86318 
L 376.25719 183.148057 
L 376.280642 230.86318 
M 377.039076 230.86318 
L 377.06071 198.219062 
L 377.082344 230.86318 
M 377.845197 230.86318 
L 377.86423 213.182787 
L 377.883263 230.86318 
M 378.662219 230.86318 
L 378.66775 228.106021 
L 378.673282 230.86318 
M 382.21582 230.86318 
L 382.23337 219.527696 
L 382.250921 230.86318 
M 383.016241 230.86318 
L 383.03689 204.595197 
L 383.05754 230.86318 
M 383.817663 230.86318 
L 383.84041 189.598117 
L 383.863157 230.86318 
M 384.619662 230.86318 
L 384.64393 174.444746 
L 384.668199 230.86318 
M 385.422017 230.86318 
L 385.44745 158.975379 
L 385.472883 230.86318 
M 386.22435 230.86318 
L 386.25097 142.930498 
L 386.277589 230.86318 
M 387.02576 230.86318 
L 387.05449 125.992114 
L 387.083219 230.86318 
M 387.826964 230.86318 
L 387.85801 107.559057 
L 387.889059 230.86318 
M 388.616683 230.86318 
L 388.62805 222.84758 
L 388.66153 79.860709 
L 388.706377 230.86318 
M 389.435147 230.86318 
L 389.46505 116.888367 
L 389.494949 230.86318 
M 390.240515 230.86318 
L 390.26857 131.306646 
L 390.296628 230.86318 
M 391.045944 230.86318 
L 391.07209 147.082342 
L 391.098236 230.86318 
M 391.850432 230.86318 
L 391.87561 162.734785 
L 391.900788 230.86318 
M 392.655184 230.86318 
L 392.67913 178.059592 
L 392.703077 230.86318 
M 393.460332 230.86318 
L 393.48265 193.122553 
L 393.504969 230.86318 
M 394.26612 230.86318 
L 394.28617 208.020156 
L 394.306221 230.86318 
M 395.073569 230.86318 
L 395.08969 222.828077 
L 395.105812 230.86318 
M 398.644831 230.86318 
L 398.65531 225.639383 
L 398.66579 230.86318 
M 399.43927 230.86318 
L 399.45883 210.603823 
L 399.47839 230.86318 
M 400.240345 230.86318 
L 400.26235 195.531637 
L 400.284355 230.86318 
M 401.042141 230.86318 
L 401.06587 180.354656 
L 401.0896 230.86318 
M 401.84437 230.86318 
L 401.86939 164.940158 
L 401.894411 230.86318 
M 402.646872 230.86318 
L 402.67291 149.016449 
L 402.698949 230.86318 
M 403.448446 230.86318 
L 403.47643 132.049341 
L 403.504414 230.86318 
M 404.249605 230.86318 
L 404.27995 112.99582 
L 404.310293 230.86318 
M 405.046717 230.86318 
L 405.04999 228.553864 
L 405.08347 85.564252 
L 405.120225 230.86318 
M 405.855746 230.86318 
L 405.88699 105.872076 
L 405.918234 230.86318 
M 406.661645 230.86318 
L 406.69051 125.072186 
L 406.719375 230.86318 
M 407.467123 230.86318 
L 407.49403 140.626797 
L 407.520939 230.86318 
M 408.271943 230.86318 
L 408.29755 156.262473 
L 408.323158 230.86318 
M 409.076571 230.86318 
L 409.10107 171.700383 
L 409.12557 230.86318 
M 409.881536 230.86318 
L 409.90459 186.893589 
L 409.927645 230.86318 
M 410.687025 230.86318 
L 410.70811 201.896113 
L 410.729196 230.86318 
M 411.493401 230.86318 
L 411.51163 216.772909 
L 411.52986 230.86318 
M 415.862548 230.86318 
L 415.88077 216.803821 
L 415.898993 230.86318 
M 416.663165 230.86318 
L 416.68429 201.638648 
L 416.705416 230.86318 
M 417.464702 230.86318 
L 417.48781 186.400987 
L 417.510919 230.86318 
M 418.266774 230.86318 
L 418.29133 170.997605 
L 418.315887 230.86318 
M 419.069178 230.86318 
L 419.09485 155.222954 
L 419.120523 230.86318 
M 419.871213 230.86318 
L 419.89837 138.588517 
L 419.925526 230.86318 
M 420.67241 230.86318 
L 420.70189 119.999874 
L 420.731369 230.86318 
M 421.472998 230.86318 
L 421.50541 96.487831 
L 421.537823 230.86318 
M 422.268833 230.86318 
L 422.27545 226.198188 
L 422.30893 83.213068 
L 422.349026 230.86318 
M 423.082466 230.86318 
L 423.11245 115.98343 
L 423.142434 230.86318 
M 423.888262 230.86318 
L 423.91597 134.089371 
L 423.943681 230.86318 
M 424.693516 230.86318 
L 424.71949 150.147927 
L 424.745465 230.86318 
M 425.498054 230.86318 
L 425.52301 165.817817 
L 425.547967 230.86318 
M 426.302887 230.86318 
L 426.32653 181.236696 
L 426.350174 230.86318 
M 427.108169 230.86318 
L 427.13005 196.449767 
L 427.151931 230.86318 
M 427.91419 230.86318 
L 427.93357 211.506017 
L 427.95295 230.86318 
M 428.728233 230.86318 
L 428.73709 226.448343 
L 428.745948 230.86318 
M 432.286738 230.86318 
L 432.30271 222.901824 
L 432.318683 230.86318 
M 433.086127 230.86318 
L 433.10623 207.733258 
L 433.126333 230.86318 
M 433.887354 230.86318 
L 433.90975 192.502785 
L 433.932146 230.86318 
M 434.689241 230.86318 
L 434.71327 177.1543 
L 434.737299 230.86318 
M 435.491531 230.86318 
L 435.51679 161.563226 
L 435.54205 230.86318 
M 436.2939 230.86318 
L 436.32031 145.410179 
L 436.346725 230.86318 
M 437.095335 230.86318 
L 437.12383 127.796145 
L 437.152324 230.86318 
M 437.896205 230.86318 
L 437.92735 106.405663 
L 437.95849 230.86318 
M 438.654683 230.86318 
L 438.69739 208.367883 
L 438.73087 65.378927 
L 438.79783 227.742897 
L 438.807063 230.86318 
M 439.502801 230.86318 
L 439.53439 103.250746 
L 439.565976 230.86318 
M 440.309141 230.86318 
L 440.33791 126.056985 
L 440.366677 230.86318 
M 441.114948 230.86318 
L 441.14143 143.430394 
L 441.167918 230.86318 
M 441.91955 230.86318 
L 441.94495 159.465528 
L 441.970351 230.86318 
M 442.724256 230.86318 
L 442.74847 175.072737 
L 442.772685 230.86318 
M 443.529343 230.86318 
L 443.55199 190.443303 
L 443.574638 230.86318 
M 444.335039 230.86318 
L 444.35551 205.645735 
L 444.375982 230.86318 
M 445.141794 230.86318 
L 445.15903 220.720295 
L 445.176267 230.86318 
M 448.721839 230.86318 
L 448.72465 229.462375 
L 448.727461 230.86318 
M 449.509395 230.86318 
L 449.52817 214.375243 
L 449.546946 230.86318 
M 450.310199 230.86318 
L 450.33169 199.204901 
L 450.353182 230.86318 
M 451.111837 230.86318 
L 451.13521 183.918025 
L 451.158583 230.86318 
M 451.913972 230.86318 
L 451.93873 168.448701 
L 451.963488 230.86318 
M 452.716421 230.86318 
L 452.74225 152.635301 
L 452.76808 230.86318 
M 453.518286 230.86318 
L 453.54577 135.944347 
L 453.573253 230.86318 
M 454.31938 230.86318 
L 454.34929 116.544328 
L 454.379199 230.86318 
M 455.119438 230.86318 
L 455.15281 88.746488 
L 455.186183 230.86318 
" clip-path="url(#p22908beae6)" style="fill: none; stroke: #ff725c; stroke-width: 0.8; stroke-linecap: square"/>
   </g>
   <g id="line2d_24">
    <path d="M 53.79457 213.500326 
L 53.848627 230.86318 
M 54.568129 230.86318 
L 54.59809 116.232999 
L 54.62805 230.86318 
M 55.373454 230.86318 
L 55.40161 130.637225 
L 55.429768 230.86318 
M 56.17817 230.86318 
L 56.20513 140.308248 
L 56.23209 230.86318 
M 56.982599 230.86318 
L 57.00865 148.789594 
L 57.034702 230.86318 
M 57.787263 230.86318 
L 57.81217 166.483135 
L 57.837077 230.86318 
M 58.591412 230.86318 
L 58.61569 174.334159 
L 58.639968 230.86318 
M 59.395885 230.86318 
L 59.41921 184.370129 
L 59.442536 230.86318 
M 60.205376 230.86318 
L 60.22273 220.279355 
L 60.240084 230.86318 
M 61.006646 230.86318 
L 61.02625 210.375993 
L 61.045855 230.86318 
M 61.81241 230.86318 
L 61.82977 220.257287 
L 61.84713 230.86318 
M 62.17121 230.86318 
L 62.18131 225.828712 
L 62.19141 230.86318 
M 62.622159 230.86318 
L 62.63329 225.31491 
L 62.644421 230.86318 
M 62.964868 230.86318 
L 62.98483 208.496628 
L 63.004793 230.86318 
M 63.434628 230.86318 
L 63.43681 229.775582 
L 63.438992 230.86318 
M 63.766286 230.86318 
L 63.78835 195.084418 
L 63.810415 230.86318 
M 64.569247 230.86318 
L 64.59187 190.64517 
L 64.614494 230.86318 
M 65.373026 230.86318 
L 65.39539 192.758828 
L 65.417754 230.86318 
M 66.174226 230.86318 
L 66.19891 169.395866 
L 66.223594 230.86318 
M 66.976504 230.86318 
L 67.00243 150.993213 
L 67.028356 230.86318 
M 67.77961 230.86318 
L 67.80595 145.290137 
L 67.83229 230.86318 
M 68.581002 230.86318 
L 68.60947 128.179519 
L 68.637938 230.86318 
M 69.382472 230.86318 
L 69.41299 111.698788 
L 69.443508 230.86318 
M 70.188471 230.86318 
L 70.21651 131.661027 
L 70.244548 230.86318 
M 70.990976 230.86318 
L 71.02003 123.458072 
L 71.049085 230.86318 
M 71.796245 230.86318 
L 71.82355 137.549577 
L 71.850856 230.86318 
M 72.599645 230.86318 
L 72.62707 136.586074 
L 72.654495 230.86318 
M 73.405823 230.86318 
L 73.43059 168.331051 
L 73.455357 230.86318 
M 74.208331 230.86318 
L 74.23411 153.481663 
L 74.259889 230.86318 
M 75.012933 230.86318 
L 75.03763 169.222637 
L 75.062328 230.86318 
M 75.816984 230.86318 
L 75.84115 175.617101 
L 75.865317 230.86318 
M 76.621138 230.86318 
L 76.64467 182.361065 
L 76.668202 230.86318 
M 77.426289 230.86318 
L 77.44819 196.297672 
L 77.470092 230.86318 
M 77.788656 230.86318 
L 77.79973 225.342912 
L 77.810805 230.86318 
M 78.231408 230.86318 
L 78.25171 206.616466 
L 78.272013 230.86318 
M 78.584639 230.86318 
L 78.60325 215.117238 
L 78.621861 230.86318 
M 79.036353 230.86318 
L 79.05523 213.910691 
L 79.074107 230.86318 
M 79.386366 230.86318 
L 79.40677 206.036934 
L 79.427174 230.86318 
M 79.845596 230.86318 
L 79.85875 224.306554 
L 79.871905 230.86318 
M 80.189484 230.86318 
L 80.21029 203.646398 
L 80.231097 230.86318 
M 80.992733 230.86318 
L 81.01381 201.950968 
L 81.034887 230.86318 
M 81.794099 230.86318 
L 81.81733 185.264601 
L 81.840562 230.86318 
M 82.596841 230.86318 
L 82.62085 177.366884 
L 82.64486 230.86318 
M 83.399661 230.86318 
L 83.42437 169.070185 
L 83.44908 230.86318 
M 84.201412 230.86318 
L 84.22789 144.251663 
L 84.254368 230.86318 
M 85.004122 230.86318 
L 85.03141 137.581921 
L 85.058697 230.86318 
M 85.804776 230.86318 
L 85.83493 114.629143 
L 85.865084 230.86318 
M 86.606192 230.86318 
L 86.63845 97.700602 
L 86.670709 230.86318 
M 87.410395 230.86318 
L 87.44197 103.209683 
L 87.473545 230.86318 
M 88.217424 230.86318 
L 88.24549 131.298794 
L 88.273559 230.86318 
M 89.021303 230.86318 
L 89.04901 134.342724 
L 89.076717 230.86318 
M 89.825319 230.86318 
L 89.85253 138.315351 
L 89.879741 230.86318 
M 90.630255 230.86318 
L 90.65605 153.216542 
L 90.681845 230.86318 
M 91.434063 230.86318 
L 91.45957 157.834317 
L 91.485078 230.86318 
M 92.238515 230.86318 
L 92.26309 170.757275 
L 92.287666 230.86318 
M 93.045331 230.86318 
L 93.06661 200.636597 
L 93.087889 230.86318 
M 93.850471 230.86318 
L 93.87013 210.096308 
L 93.889789 230.86318 
M 94.65558 230.86318 
L 94.67365 217.439646 
L 94.691721 230.86318 
M 95.459968 230.86318 
L 95.47717 220.849412 
L 95.494372 230.86318 
M 95.820781 230.86318 
L 95.82871 226.910323 
L 95.83664 230.86318 
M 96.613448 230.86318 
L 96.63223 214.345443 
L 96.651013 230.86318 
M 97.417386 230.86318 
L 97.43575 216.197649 
L 97.454115 230.86318 
M 98.217214 230.86318 
L 98.23927 195.142403 
L 98.261327 230.86318 
M 99.018454 230.86318 
L 99.04279 173.654474 
L 99.067127 230.86318 
M 99.821061 230.86318 
L 99.84631 161.706547 
L 99.87156 230.86318 
M 100.624087 230.86318 
L 100.64983 154.062541 
L 100.675574 230.86318 
M 101.425732 230.86318 
L 101.45335 135.00737 
L 101.480968 230.86318 
M 102.227962 230.86318 
L 102.25687 124.626011 
L 102.285778 230.86318 
M 103.030881 230.86318 
L 103.06039 119.735167 
L 103.089897 230.86318 
M 103.831383 230.86318 
L 103.86391 95.536076 
L 103.896438 230.86318 
M 104.635779 230.86318 
L 104.66743 102.590896 
L 104.699082 230.86318 
M 105.442225 230.86318 
L 105.47095 126.1097 
L 105.499676 230.86318 
M 106.250468 230.86318 
L 106.27447 177.451062 
L 106.298472 230.86318 
M 107.052297 230.86318 
L 107.07799 154.883682 
L 107.103684 230.86318 
M 107.858163 230.86318 
L 107.88151 184.165844 
L 107.904857 230.86318 
M 108.660597 230.86318 
L 108.68503 172.499401 
L 108.709464 230.86318 
M 109.465073 230.86318 
L 109.48855 182.905568 
L 109.512027 230.86318 
M 110.271607 230.86318 
L 110.29207 205.696607 
L 110.312533 230.86318 
M 111.07528 230.86318 
L 111.09559 206.574407 
L 111.1159 230.86318 
M 111.439429 230.86318 
L 111.44713 227.0239 
L 111.454832 230.86318 
M 111.879428 230.86318 
L 111.89911 209.973105 
L 111.918793 230.86318 
M 112.232453 230.86318 
L 112.25065 216.909735 
L 112.268848 230.86318 
M 112.685122 230.86318 
L 112.70263 219.69034 
L 112.720138 230.86318 
M 113.034692 230.86318 
L 113.05417 211.01585 
L 113.073649 230.86318 
M 113.504831 230.86318 
L 113.50615 230.205889 
L 113.507469 230.86318 
M 113.836246 230.86318 
L 113.85769 199.527872 
L 113.879135 230.86318 
M 114.637896 230.86318 
L 114.66121 184.484143 
L 114.684524 230.86318 
M 115.440751 230.86318 
L 115.46473 177.697088 
L 115.48871 230.86318 
M 116.244514 230.86318 
L 116.26825 180.287515 
L 116.291986 230.86318 
M 117.047342 230.86318 
L 117.07177 172.556283 
L 117.096199 230.86318 
M 117.849324 230.86318 
L 117.87529 150.296741 
L 117.901256 230.86318 
M 118.650647 230.86318 
L 118.67881 130.700229 
L 118.706974 230.86318 
M 119.454519 230.86318 
L 119.48233 133.475967 
L 119.510142 230.86318 
M 120.25392 230.86318 
L 120.28585 100.337613 
L 120.317781 230.86318 
M 121.060512 230.86318 
L 121.08937 124.947628 
L 121.118231 230.86318 
M 121.862838 230.86318 
L 121.89289 115.42328 
L 121.922942 230.86318 
M 122.668806 230.86318 
L 122.69641 135.176754 
L 122.724016 230.86318 
M 123.473962 230.86318 
L 123.49993 150.261731 
L 123.525898 230.86318 
M 124.277797 230.86318 
L 124.30345 155.539689 
L 124.329103 230.86318 
M 125.081979 230.86318 
L 125.10697 165.343128 
L 125.131962 230.86318 
M 125.886794 230.86318 
L 125.91049 180.694836 
L 125.934187 230.86318 
M 126.691125 230.86318 
L 126.71401 188.399892 
L 126.736896 230.86318 
M 127.49524 230.86318 
L 127.51753 193.341313 
L 127.539821 230.86318 
M 128.300675 230.86318 
L 128.32105 206.204364 
L 128.341426 230.86318 
M 128.664666 230.86318 
L 128.67259 226.907126 
L 128.680514 230.86318 
M 129.107278 230.86318 
L 129.12457 220.502782 
L 129.141863 230.86318 
M 129.457934 230.86318 
L 129.47611 217.006932 
L 129.494286 230.86318 
M 129.924229 230.86318 
L 129.92809 228.939938 
L 129.931952 230.86318 
M 130.258926 230.86318 
L 130.27963 204.262347 
L 130.300335 230.86318 
M 131.063231 230.86318 
L 131.08315 208.723724 
L 131.10307 230.86318 
M 131.863998 230.86318 
L 131.88667 190.2283 
L 131.909343 230.86318 
M 132.666664 230.86318 
L 132.69019 182.4189 
L 132.713716 230.86318 
M 133.469819 230.86318 
L 133.49371 178.645609 
L 133.517602 230.86318 
M 134.271775 230.86318 
L 134.29723 158.638809 
L 134.322686 230.86318 
M 135.074442 230.86318 
L 135.10075 144.053301 
L 135.127058 230.86318 
M 135.87606 230.86318 
L 135.90427 129.806294 
L 135.93249 230.86318 
M 136.676241 230.86318 
L 136.70779 104.420826 
L 136.739368 230.86318 
M 137.300481 230.86318 
L 137.44435 202.566901 
L 137.47783 183.191329 
L 137.51131 40.202437 
L 137.57827 202.566988 
L 137.722111 230.86318 
M 138.283555 230.86318 
L 138.31483 104.72984 
L 138.346115 230.86318 
M 139.089643 230.86318 
L 139.11835 128.464573 
L 139.147034 230.86318 
M 139.894793 230.86318 
L 139.92187 143.138278 
L 139.948926 230.86318 
M 140.699969 230.86318 
L 140.72539 159.157691 
L 140.750811 230.86318 
M 141.504991 230.86318 
L 141.52891 178.353762 
L 141.552829 230.86318 
M 142.309224 230.86318 
L 142.33243 185.498353 
L 142.355637 230.86318 
M 143.113552 230.86318 
L 143.13595 192.486029 
L 143.158349 230.86318 
M 143.91954 230.86318 
L 143.93947 208.672339 
L 143.959401 230.86318 
M 144.722374 230.86318 
L 144.74299 204.795579 
L 144.763607 230.86318 
M 145.090707 230.86318 
L 145.09453 228.95594 
L 145.098354 230.86318 
M 145.528408 230.86318 
L 145.54651 217.299691 
L 145.564613 230.86318 
M 145.880757 230.86318 
L 145.89805 220.516953 
L 145.915344 230.86318 
M 146.341914 230.86318 
L 146.35003 226.823821 
L 146.358146 230.86318 
M 146.681124 230.86318 
L 146.70157 205.788338 
L 146.722017 230.86318 
M 147.482761 230.86318 
L 147.50509 193.034962 
L 147.52742 230.86318 
M 148.285714 230.86318 
L 148.30861 188.306295 
L 148.331507 230.86318 
M 149.08836 230.86318 
L 149.11213 179.927884 
L 149.135901 230.86318 
M 149.890626 230.86318 
L 149.91565 164.886089 
L 149.940675 230.86318 
M 150.693547 230.86318 
L 150.71917 156.011849 
L 150.744794 230.86318 
M 151.496806 230.86318 
L 151.52269 151.713685 
L 151.548574 230.86318 
M 152.29872 230.86318 
L 152.32621 135.953769 
L 152.3537 230.86318 
M 153.09979 230.86318 
L 153.12973 116.358001 
L 153.15967 230.86318 
M 153.904764 230.86318 
L 153.93325 128.015656 
L 153.961734 230.86318 
M 154.705017 230.86318 
L 154.73677 101.753581 
L 154.768524 230.86318 
M 155.51249 230.86318 
L 155.54029 133.598998 
L 155.56809 230.86318 
M 156.315666 230.86318 
L 156.34381 130.782089 
L 156.371955 230.86318 
M 157.121408 230.86318 
L 157.14733 151.052286 
L 157.173253 230.86318 
M 157.927116 230.86318 
L 157.95085 180.30146 
L 157.974585 230.86318 
M 158.731058 230.86318 
L 158.75437 184.502106 
L 158.777682 230.86318 
M 159.534019 230.86318 
L 159.55789 178.864268 
L 159.581762 230.86318 
M 160.338193 230.86318 
L 160.36141 185.390669 
L 160.384628 230.86318 
M 161.143564 230.86318 
L 161.16493 200.052839 
L 161.186297 230.86318 
M 161.514759 230.86318 
L 161.51647 230.010214 
L 161.518181 230.86318 
M 161.949002 230.86318 
L 161.96845 211.168378 
L 161.987898 230.86318 
M 162.302414 230.86318 
L 162.31999 219.427178 
L 162.337566 230.86318 
M 162.753834 230.86318 
L 162.77197 217.164113 
L 162.790107 230.86318 
M 163.103795 230.86318 
L 163.12351 209.803463 
L 163.143226 230.86318 
M 163.568665 230.86318 
L 163.57549 227.461138 
L 163.582316 230.86318 
M 163.906737 230.86318 
L 163.92703 206.669199 
L 163.947324 230.86318 
M 164.710052 230.86318 
L 164.73055 205.491617 
L 164.751048 230.86318 
M 165.510589 230.86318 
L 165.53407 182.864341 
L 165.557551 230.86318 
M 166.313188 230.86318 
L 166.33759 172.868658 
L 166.361993 230.86318 
M 167.11728 230.86318 
L 167.14111 179.304088 
L 167.16494 230.86318 
M 167.918791 230.86318 
L 167.94463 152.463575 
L 167.97047 230.86318 
M 168.722964 230.86318 
L 168.74815 162.616591 
L 168.773337 230.86318 
M 169.523376 230.86318 
L 169.55167 129.572547 
L 169.579964 230.86318 
M 170.323723 230.86318 
L 170.35519 104.066479 
L 170.386658 230.86318 
M 171.126586 230.86318 
L 171.15871 98.782192 
L 171.190834 230.86318 
M 171.932725 230.86318 
L 171.96223 119.771325 
L 171.991737 230.86318 
M 172.73692 230.86318 
L 172.76575 125.263736 
L 172.79458 230.86318 
M 173.541711 230.86318 
L 173.56927 135.502407 
L 173.59683 230.86318 
M 174.347063 230.86318 
L 174.37279 154.33179 
L 174.398518 230.86318 
M 175.151048 230.86318 
L 175.17631 161.520549 
L 175.201573 230.86318 
M 175.955515 230.86318 
L 175.97983 173.90118 
L 176.004146 230.86318 
M 176.761386 230.86318 
L 176.78335 195.836609 
L 176.805314 230.86318 
M 177.567994 230.86318 
L 177.58687 213.913968 
L 177.605747 230.86318 
M 178.371931 230.86318 
L 178.39039 215.784476 
L 178.40885 230.86318 
M 179.192734 230.86318 
L 179.19391 230.276658 
L 179.195087 230.86318 
M 179.52853 230.86318 
L 179.54545 221.879447 
L 179.56237 230.86318 
M 180.331096 230.86318 
L 180.34897 218.242509 
L 180.366845 230.86318 
M 181.132862 230.86318 
L 181.15249 210.252894 
L 181.172119 230.86318 
M 181.934511 230.86318 
L 181.95601 199.156372 
L 181.977509 230.86318 
M 182.734941 230.86318 
L 182.75953 170.584504 
L 182.78412 230.86318 
M 183.537539 230.86318 
L 183.56305 157.769855 
L 183.588562 230.86318 
M 184.340745 230.86318 
L 184.36657 152.698817 
L 184.392396 230.86318 
M 185.142734 230.86318 
L 185.17009 137.14546 
L 185.197446 230.86318 
M 185.945671 230.86318 
L 185.97361 132.468284 
L 186.00155 230.86318 
M 186.749349 230.86318 
L 186.77713 133.659713 
L 186.804911 230.86318 
M 187.54914 230.86318 
L 187.58065 103.717619 
L 187.612161 230.86318 
M 188.352299 230.86318 
L 188.38417 100.818922 
L 188.416041 230.86318 
M 189.157855 230.86318 
L 189.18769 117.194728 
L 189.217525 230.86318 
M 189.964078 230.86318 
L 189.99121 138.848943 
L 190.018344 230.86318 
M 190.768366 230.86318 
L 190.79473 145.149803 
L 190.821095 230.86318 
M 191.573589 230.86318 
L 191.59825 169.687272 
L 191.622911 230.86318 
M 192.377923 230.86318 
L 192.40177 179.12338 
L 192.425617 230.86318 
M 193.182237 230.86318 
L 193.20529 186.900719 
L 193.228344 230.86318 
M 193.987977 230.86318 
L 194.00881 203.48205 
L 194.029643 230.86318 
M 194.791751 230.86318 
L 194.81233 205.014964 
L 194.832909 230.86318 
M 195.152273 230.86318 
L 195.16387 225.08243 
L 195.175467 230.86318 
M 195.595803 230.86318 
L 195.61585 208.036529 
L 195.635898 230.86318 
M 195.948761 230.86318 
L 195.96739 215.035945 
L 195.98602 230.86318 
M 196.401283 230.86318 
L 196.41937 217.370443 
L 196.437458 230.86318 
M 196.750879 230.86318 
L 196.77091 208.124428 
L 196.790942 230.86318 
M 197.215929 230.86318 
L 197.22289 227.393436 
L 197.229851 230.86318 
M 197.552707 230.86318 
L 197.57443 197.584728 
L 197.596154 230.86318 
M 198.354587 230.86318 
L 198.37795 184.013213 
L 198.401313 230.86318 
M 199.1575 230.86318 
L 199.18147 177.799611 
L 199.20544 230.86318 
M 199.960418 230.86318 
L 199.98499 170.796706 
L 200.009563 230.86318 
M 200.762823 230.86318 
L 200.78851 154.985897 
L 200.814198 230.86318 
M 201.567353 230.86318 
L 201.59203 169.48541 
L 201.616707 230.86318 
M 202.368018 230.86318 
L 202.39555 135.723486 
L 202.423083 230.86318 
M 203.171638 230.86318 
L 203.19907 136.541024 
L 203.226503 230.86318 
M 203.974655 230.86318 
L 204.00259 132.47511 
L 204.030525 230.86318 
M 204.778029 230.86318 
L 204.80611 131.309208 
L 204.834192 230.86318 
M 205.579582 230.86318 
L 205.60963 115.476278 
L 205.639679 230.86318 
M 206.385052 230.86318 
L 206.41315 131.157833 
L 206.441249 230.86318 
M 207.1906 230.86318 
L 207.21667 148.450908 
L 207.242741 230.86318 
M 207.994383 230.86318 
L 208.02019 153.015293 
L 208.045997 230.86318 
M 208.799113 230.86318 
L 208.82371 170.492998 
L 208.848307 230.86318 
M 209.605083 230.86318 
L 209.62723 194.45249 
L 209.649378 230.86318 
M 210.408268 230.86318 
L 210.43075 191.808683 
L 210.453232 230.86318 
M 211.212383 230.86318 
L 211.23427 196.40582 
L 211.256157 230.86318 
M 211.584185 230.86318 
L 211.58581 230.053225 
L 211.587435 230.86318 
M 212.018083 230.86318 
L 212.03779 209.84831 
L 212.057497 230.86318 
M 212.37887 230.86318 
L 212.38933 225.649117 
L 212.399791 230.86318 
M 212.832505 230.86318 
L 212.84131 226.473644 
L 212.850116 230.86318 
M 213.175269 230.86318 
L 213.19285 219.40581 
L 213.210432 230.86318 
M 213.97666 230.86318 
L 213.99637 209.830096 
L 214.016081 230.86318 
M 214.782224 230.86318 
L 214.79989 219.074061 
L 214.817556 230.86318 
M 215.580091 230.86318 
L 215.60341 184.43558 
L 215.626729 230.86318 
M 216.382649 230.86318 
L 216.40693 174.300658 
L 216.431211 230.86318 
M 217.185441 230.86318 
L 217.21045 165.093173 
L 217.23546 230.86318 
M 217.987848 230.86318 
L 218.01397 147.514721 
L 218.040093 230.86318 
M 218.790387 230.86318 
L 218.81749 139.024202 
L 218.844593 230.86318 
M 219.592732 230.86318 
L 219.62101 129.665011 
L 219.649288 230.86318 
M 220.394048 230.86318 
L 220.42453 112.024065 
L 220.455014 230.86318 
M 221.182773 230.86318 
L 221.19457 222.541741 
L 221.22805 79.553169 
L 221.273328 230.86318 
M 222.002261 230.86318 
L 222.03157 121.507462 
L 222.060878 230.86318 
M 222.807082 230.86318 
L 222.83509 131.8803 
L 222.863099 230.86318 
M 223.611667 230.86318 
L 223.63861 140.300556 
L 223.665555 230.86318 
M 224.416141 230.86318 
L 224.44213 149.891144 
L 224.46812 230.86318 
M 225.220951 230.86318 
L 225.24565 169.199307 
L 225.27035 230.86318 
M 226.024903 230.86318 
L 226.04917 174.456856 
L 226.073438 230.86318 
M 226.829434 230.86318 
L 226.85269 185.030045 
L 226.875947 230.86318 
M 227.651454 230.86318 
L 227.65621 228.49224 
L 227.660966 230.86318 
M 228.440232 230.86318 
L 228.45973 210.913671 
L 228.479229 230.86318 
M 229.246311 230.86318 
L 229.26325 221.809815 
L 229.28019 230.86318 
M 229.603996 230.86318 
L 229.61479 225.482582 
L 229.625585 230.86318 
M 230.057656 230.86318 
L 230.06677 226.320319 
L 230.075885 230.86318 
M 230.398328 230.86318 
L 230.41831 208.392095 
L 230.438292 230.86318 
M 230.870177 230.86318 
L 230.87029 230.806545 
L 230.870404 230.86318 
M 231.199765 230.86318 
L 231.22183 195.080502 
L 231.243895 230.86318 
M 232.002724 230.86318 
L 232.02535 190.62256 
L 232.047976 230.86318 
M 232.80621 230.86318 
L 232.82887 190.336607 
L 232.85153 230.86318 
M 233.607715 230.86318 
L 233.63239 169.511158 
L 233.657065 230.86318 
M 234.410061 230.86318 
L 234.43591 152.305941 
L 234.461759 230.86318 
M 235.213296 230.86318 
L 235.23943 147.295728 
L 235.265565 230.86318 
M 236.014533 230.86318 
L 236.04295 128.588688 
L 236.071367 230.86318 
M 236.815948 230.86318 
L 236.84647 111.660541 
L 236.876993 230.86318 
M 237.621956 230.86318 
L 237.64999 131.673631 
L 237.678025 230.86318 
M 238.424018 230.86318 
L 238.45351 119.936678 
L 238.483003 230.86318 
M 239.230197 230.86318 
L 239.25703 141.312335 
L 239.283864 230.86318 
M 240.033964 230.86318 
L 240.06055 143.325682 
L 240.087136 230.86318 
M 240.839027 230.86318 
L 240.86407 164.631025 
L 240.889114 230.86318 
M 241.641955 230.86318 
L 241.66759 155.826239 
L 241.693225 230.86318 
M 242.44662 230.86318 
L 242.47111 171.807675 
L 242.495601 230.86318 
M 243.250607 230.86318 
L 243.27463 177.222707 
L 243.298653 230.86318 
M 244.054828 230.86318 
L 244.07815 184.401209 
L 244.101473 230.86318 
M 244.860084 230.86318 
L 244.88167 198.554861 
L 244.903256 230.86318 
M 245.224985 230.86318 
L 245.23321 226.763106 
L 245.241436 230.86318 
M 245.665195 230.86318 
L 245.68519 208.318402 
L 245.705186 230.86318 
M 246.018327 230.86318 
L 246.03673 216.029604 
L 246.055134 230.86318 
M 246.470257 230.86318 
L 246.48871 215.814244 
L 246.507163 230.86318 
M 246.820019 230.86318 
L 246.84025 207.017756 
L 246.860482 230.86318 
M 247.283774 230.86318 
L 247.29223 226.647998 
L 247.300687 230.86318 
M 247.623221 230.86318 
L 247.64377 205.192135 
L 247.664319 230.86318 
M 248.426215 230.86318 
L 248.44729 201.960345 
L 248.468366 230.86318 
M 249.22765 230.86318 
L 249.25081 185.925876 
L 249.273971 230.86318 
M 250.030446 230.86318 
L 250.05433 178.721741 
L 250.078215 230.86318 
M 250.833225 230.86318 
L 250.85785 170.133864 
L 250.882476 230.86318 
M 251.635135 230.86318 
L 251.66137 146.218391 
L 251.687606 230.86318 
M 252.437881 230.86318 
L 252.46489 139.816162 
L 252.491897 230.86318 
M 253.238275 230.86318 
L 253.26841 114.781449 
L 253.298545 230.86318 
M 254.039581 230.86318 
L 254.07193 96.971553 
L 254.10428 230.86318 
M 254.843928 230.86318 
L 254.87545 103.632357 
L 254.906972 230.86318 
M 255.650726 230.86318 
L 255.67897 129.856636 
L 255.707216 230.86318 
M 256.455157 230.86318 
L 256.48249 137.33736 
L 256.509823 230.86318 
M 257.259179 230.86318 
L 257.28601 141.380851 
L 257.312842 230.86318 
M 258.063878 230.86318 
L 258.08953 155.544074 
L 258.115183 230.86318 
M 258.86764 230.86318 
L 258.89305 159.324176 
L 258.91846 230.86318 
M 259.672103 230.86318 
L 259.69657 172.083553 
L 259.721038 230.86318 
M 260.478854 230.86318 
L 260.50009 200.917282 
L 260.521327 230.86318 
M 261.283594 230.86318 
L 261.30361 208.207432 
L 261.323626 230.86318 
M 262.089069 230.86318 
L 262.10713 217.479887 
L 262.125191 230.86318 
M 262.894683 230.86318 
L 262.91065 222.904255 
L 262.926618 230.86318 
M 263.253315 230.86318 
L 263.26219 226.439209 
L 263.271066 230.86318 
M 264.046781 230.86318 
L 264.06571 213.666746 
L 264.08464 230.86318 
M 264.851032 230.86318 
L 264.86923 216.905741 
L 264.887429 230.86318 
M 265.650695 230.86318 
L 265.67275 195.150765 
L 265.694806 230.86318 
M 266.451994 230.86318 
L 266.47627 174.352919 
L 266.500547 230.86318 
M 267.254647 230.86318 
L 267.27979 163.228118 
L 267.304934 230.86318 
M 268.057636 230.86318 
L 268.08331 155.203144 
L 268.108984 230.86318 
M 268.859267 230.86318 
L 268.88683 135.482688 
L 268.914394 230.86318 
M 269.661403 230.86318 
L 269.69035 124.305202 
L 269.719297 230.86318 
M 270.464747 230.86318 
L 270.49387 122.771935 
L 270.52299 230.86318 
M 271.264226 230.86318 
L 271.29739 90.408949 
L 271.330555 230.86318 
M 272.069252 230.86318 
L 272.10091 102.523033 
L 272.132569 230.86318 
M 272.875567 230.86318 
L 272.90443 125.041461 
L 272.933293 230.86318 
M 273.683676 230.86318 
L 273.70795 174.384014 
L 273.732224 230.86318 
M 274.485918 230.86318 
L 274.51147 157.135182 
L 274.537023 230.86318 
M 275.291899 230.86318 
L 275.31499 186.555663 
L 275.338082 230.86318 
M 276.09412 230.86318 
L 276.11851 173.009089 
L 276.142901 230.86318 
M 276.898561 230.86318 
L 276.92203 182.980918 
L 276.9455 230.86318 
M 277.704938 230.86318 
L 277.72555 204.818042 
L 277.746163 230.86318 
M 278.508662 230.86318 
L 278.52907 206.012789 
L 278.549479 230.86318 
M 278.871914 230.86318 
L 278.88061 226.528238 
L 278.889307 230.86318 
M 279.312961 230.86318 
L 279.33259 210.249464 
L 279.35222 230.86318 
M 279.665874 230.86318 
L 279.68413 216.659596 
L 279.702387 230.86318 
M 280.118817 230.86318 
L 280.13611 220.508651 
L 280.153403 230.86318 
M 280.468217 230.86318 
L 280.48765 211.243201 
L 280.507083 230.86318 
M 280.939612 230.86318 
L 280.93963 230.854006 
L 280.939649 230.86318 
M 281.269664 230.86318 
L 281.29117 199.105329 
L 281.312677 230.86318 
M 282.071325 230.86318 
L 282.09469 183.987145 
L 282.118056 230.86318 
M 282.874193 230.86318 
L 282.89821 177.287245 
L 282.922227 230.86318 
M 283.677651 230.86318 
L 283.70173 176.603 
L 283.725809 230.86318 
M 284.480294 230.86318 
L 284.50525 165.825576 
L 284.530206 230.86318 
M 285.282867 230.86318 
L 285.30877 151.376984 
L 285.334674 230.86318 
M 286.084333 230.86318 
L 286.11229 132.337816 
L 286.140248 230.86318 
M 286.888033 230.86318 
L 286.91581 133.831053 
L 286.94359 230.86318 
M 287.687352 230.86318 
L 287.71933 99.953804 
L 287.751308 230.86318 
M 288.49317 230.86318 
L 288.52285 118.382623 
L 288.552532 230.86318 
M 289.296313 230.86318 
L 289.32637 115.398507 
L 289.356427 230.86318 
M 290.102377 230.86318 
L 290.12989 135.855903 
L 290.157404 230.86318 
M 290.907426 230.86318 
L 290.93341 149.978028 
L 290.959395 230.86318 
M 291.711249 230.86318 
L 291.73693 155.07754 
L 291.762612 230.86318 
M 292.515499 230.86318 
L 292.54045 165.886563 
L 292.565402 230.86318 
M 293.320444 230.86318 
L 293.34397 182.420446 
L 293.367496 230.86318 
M 294.124616 230.86318 
L 294.14749 188.497371 
L 294.170365 230.86318 
M 294.928818 230.86318 
L 294.95101 194.104944 
L 294.973203 230.86318 
M 295.734384 230.86318 
L 295.75453 207.493578 
L 295.774677 230.86318 
M 296.101102 230.86318 
L 296.10607 228.385699 
L 296.111039 230.86318 
M 296.540762 230.86318 
L 296.55805 220.523598 
L 296.575339 230.86318 
M 296.891289 230.86318 
L 296.90959 216.472185 
L 296.927891 230.86318 
M 297.356877 230.86318 
L 297.36157 228.523873 
L 297.366264 230.86318 
M 297.692319 230.86318 
L 297.71311 203.740019 
L 297.733901 230.86318 
M 298.496699 230.86318 
L 298.51663 208.664069 
L 298.536562 230.86318 
M 299.297133 230.86318 
L 299.32015 187.225394 
L 299.343168 230.86318 
M 300.099767 230.86318 
L 300.12367 178.51953 
L 300.147574 230.86318 
M 300.903334 230.86318 
L 300.92719 179.029112 
L 300.951046 230.86318 
M 301.705148 230.86318 
L 301.73071 156.985203 
L 301.756272 230.86318 
M 302.507998 230.86318 
L 302.53423 145.491638 
L 302.560462 230.86318 
M 303.310151 230.86318 
L 303.33775 134.617182 
L 303.365343 230.86318 
M 304.109863 230.86318 
L 304.14127 104.69831 
L 304.172681 230.86318 
M 304.845728 230.86318 
L 304.91131 201.661194 
L 304.94479 58.672292 
L 305.01175 221.037068 
L 305.043849 230.86318 
M 305.71709 230.86318 
L 305.74831 105.806527 
L 305.779535 230.86318 
M 306.523153 230.86318 
L 306.55183 126.714665 
L 306.580505 230.86318 
M 307.328359 230.86318 
L 307.35535 140.913632 
L 307.382336 230.86318 
M 308.133468 230.86318 
L 308.15887 159.436064 
L 308.184273 230.86318 
M 308.93897 230.86318 
L 308.96239 183.459982 
L 308.985811 230.86318 
M 309.742714 230.86318 
L 309.76591 185.590725 
L 309.789107 230.86318 
M 310.547224 230.86318 
L 310.56943 193.999917 
L 310.591637 230.86318 
M 311.353032 230.86318 
L 311.37295 208.733666 
L 311.392869 230.86318 
M 312.155965 230.86318 
L 312.17647 205.451975 
L 312.196975 230.86318 
M 312.525572 230.86318 
L 312.52801 229.647266 
L 312.530449 230.86318 
M 312.962033 230.86318 
L 312.97999 217.906764 
L 312.997947 230.86318 
M 313.314556 230.86318 
L 313.33153 221.685373 
L 313.348505 230.86318 
M 313.775711 230.86318 
L 313.78351 226.976617 
L 313.791309 230.86318 
M 314.114593 230.86318 
L 314.13505 205.726334 
L 314.155508 230.86318 
M 314.916217 230.86318 
L 314.93857 192.845097 
L 314.960924 230.86318 
M 315.719178 230.86318 
L 315.74209 188.167172 
L 315.765002 230.86318 
M 316.52164 230.86318 
L 316.54561 177.801816 
L 316.56958 230.86318 
M 317.323993 230.86318 
L 317.34913 163.320969 
L 317.374267 230.86318 
M 318.127073 230.86318 
L 318.15265 156.743927 
L 318.178228 230.86318 
M 318.930417 230.86318 
L 318.95617 153.911981 
L 318.981923 230.86318 
M 319.732276 230.86318 
L 319.75969 136.621879 
L 319.787104 230.86318 
M 320.533432 230.86318 
L 320.56321 117.640418 
L 320.592988 230.86318 
M 321.339348 230.86318 
L 321.36673 137.016493 
L 321.394116 230.86318 
M 322.138583 230.86318 
L 322.17025 102.450636 
L 322.201918 230.86318 
M 322.945754 230.86318 
L 322.97377 131.94655 
L 323.001785 230.86318 
M 323.749377 230.86318 
L 323.77729 132.682871 
L 323.805203 230.86318 
M 324.55506 230.86318 
L 324.58081 153.959328 
L 324.60656 230.86318 
M 325.360696 230.86318 
L 325.38433 181.330973 
L 325.407965 230.86318 
M 326.165184 230.86318 
L 326.18785 190.280584 
L 326.210517 230.86318 
M 326.967602 230.86318 
L 326.99137 179.953606 
L 327.015138 230.86318 
M 327.771783 230.86318 
L 327.79489 186.411768 
L 327.817998 230.86318 
M 328.577181 230.86318 
L 328.59841 200.961979 
L 328.61964 230.86318 
M 328.94823 230.86318 
L 328.94995 230.005897 
L 328.95167 230.86318 
M 329.382338 230.86318 
L 329.40193 210.438622 
L 329.421523 230.86318 
M 329.735657 230.86318 
L 329.75347 218.488791 
L 329.771284 230.86318 
M 330.187249 230.86318 
L 330.20545 216.895245 
L 330.223651 230.86318 
M 330.537139 230.86318 
L 330.55699 209.091784 
L 330.576842 230.86318 
M 331.004196 230.86318 
L 331.00897 228.483412 
L 331.013744 230.86318 
M 331.340357 230.86318 
L 331.36051 207.451929 
L 331.380664 230.86318 
M 332.142862 230.86318 
L 332.16403 201.362479 
L 332.185199 230.86318 
M 332.944037 230.86318 
L 332.96755 182.541263 
L 332.991064 230.86318 
M 333.746951 230.86318 
L 333.77107 176.151306 
L 333.79519 230.86318 
M 334.550012 230.86318 
L 334.57459 170.728857 
L 334.599168 230.86318 
M 335.35214 230.86318 
L 335.37811 150.225585 
L 335.40408 230.86318 
M 336.156063 230.86318 
L 336.18163 156.901483 
L 336.207198 230.86318 
M 336.95757 230.86318 
L 336.98515 135.277938 
L 337.01273 230.86318 
M 337.75748 230.86318 
L 337.78867 106.295429 
L 337.819861 230.86318 
M 338.560391 230.86318 
L 338.59219 101.393059 
L 338.62399 230.86318 
M 339.365839 230.86318 
L 339.39571 116.853986 
L 339.425583 230.86318 
M 340.170465 230.86318 
L 340.19923 125.794474 
L 340.227995 230.86318 
M 340.975426 230.86318 
L 341.00275 137.384955 
L 341.030075 230.86318 
M 341.780729 230.86318 
L 341.80627 157.30237 
L 341.831812 230.86318 
M 342.584544 230.86318 
L 342.60979 161.756307 
L 342.635036 230.86318 
M 343.389052 230.86318 
L 343.41331 174.559113 
L 343.437569 230.86318 
M 344.195187 230.86318 
L 344.21683 198.155592 
L 344.238473 230.86318 
M 345.000069 230.86318 
L 345.02035 206.735027 
L 345.040632 230.86318 
M 345.805395 230.86318 
L 345.82387 215.717268 
L 345.842345 230.86318 
M 346.968673 230.86318 
L 346.97893 225.750578 
L 346.989187 230.86318 
M 347.76422 230.86318 
L 347.78245 216.771902 
L 347.80068 230.86318 
M 348.566309 230.86318 
L 348.58597 210.08522 
L 348.605631 230.86318 
M 349.367636 230.86318 
L 349.38949 196.642601 
L 349.411345 230.86318 
M 350.168403 230.86318 
L 350.19301 170.362383 
L 350.217618 230.86318 
M 350.971073 230.86318 
L 350.99653 158.613629 
L 351.021987 230.86318 
M 351.774257 230.86318 
L 351.80005 153.244492 
L 351.825843 230.86318 
M 352.576018 230.86318 
L 352.60357 135.53912 
L 352.631123 230.86318 
M 353.378832 230.86318 
L 353.40709 129.902712 
L 353.435349 230.86318 
M 354.182988 230.86318 
L 354.21061 135.160677 
L 354.238237 230.86318 
M 354.981902 230.86318 
L 355.01413 97.939882 
L 355.046358 230.86318 
M 355.786254 230.86318 
L 355.81765 104.617022 
L 355.849047 230.86318 
M 356.591855 230.86318 
L 356.62117 121.394928 
L 356.650485 230.86318 
M 357.397636 230.86318 
L 357.42469 139.476439 
L 357.451746 230.86318 
M 358.201759 230.86318 
L 358.22821 144.426718 
L 358.254662 230.86318 
M 359.006877 230.86318 
L 359.03173 167.196395 
L 359.056584 230.86318 
M 359.811453 230.86318 
L 359.83525 179.650655 
L 359.859047 230.86318 
M 360.615697 230.86318 
L 360.63877 186.718276 
L 360.661844 230.86318 
M 361.421702 230.86318 
L 361.44229 204.958228 
L 361.462879 230.86318 
M 362.225291 230.86318 
L 362.24581 205.364996 
L 362.26633 230.86318 
M 362.586067 230.86318 
L 362.59735 225.238958 
L 362.608634 230.86318 
M 363.029574 230.86318 
L 363.04933 209.590606 
L 363.069087 230.86318 
M 363.382432 230.86318 
L 363.40087 215.878251 
L 363.419309 230.86318 
M 363.835432 230.86318 
L 363.85285 220.035314 
L 363.870269 230.86318 
M 364.184809 230.86318 
L 364.20439 210.492827 
L 364.223972 230.86318 
M 364.653245 230.86318 
L 364.65637 229.305245 
L 364.659496 230.86318 
M 364.98633 230.86318 
L 365.00791 198.593372 
L 365.029491 230.86318 
M 365.788172 230.86318 
L 365.81143 185.013608 
L 365.834688 230.86318 
M 366.591187 230.86318 
L 366.61495 180.003818 
L 366.638714 230.86318 
M 367.393824 230.86318 
L 367.41847 169.875286 
L 367.443117 230.86318 
M 368.196241 230.86318 
L 368.22199 153.975344 
L 368.247739 230.86318 
M 369.000699 230.86318 
L 369.02551 167.755323 
L 369.050321 230.86318 
M 369.801299 230.86318 
L 369.82903 134.128342 
L 369.856762 230.86318 
M 370.604235 230.86318 
L 370.63255 129.434432 
L 370.660866 230.86318 
M 371.40717 230.86318 
L 371.43607 124.723081 
L 371.464971 230.86318 
M 372.210972 230.86318 
L 372.23959 126.994174 
L 372.268209 230.86318 
M 373.013477 230.86318 
L 373.04311 118.825171 
L 373.072743 230.86318 
M 373.818756 230.86318 
L 373.84663 132.972499 
L 373.874504 230.86318 
M 374.624336 230.86318 
L 374.65015 152.891684 
L 374.675965 230.86318 
M 375.427878 230.86318 
L 375.45367 153.261763 
L 375.479462 230.86318 
M 376.232509 230.86318 
L 376.25719 169.436545 
L 376.281871 230.86318 
M 377.038524 230.86318 
L 377.06071 194.15496 
L 377.082896 230.86318 
M 377.84168 230.86318 
L 377.86423 191.249971 
L 377.886781 230.86318 
M 378.646199 230.86318 
L 378.66775 198.791784 
L 378.689302 230.86318 
M 379.452561 230.86318 
L 379.47127 214.675236 
L 379.48998 230.86318 
M 379.820545 230.86318 
L 379.82281 229.73414 
L 379.825075 230.86318 
M 380.264264 230.86318 
L 380.27479 225.61648 
L 380.285316 230.86318 
M 380.608394 230.86318 
L 380.62633 217.992249 
L 380.644267 230.86318 
M 381.409969 230.86318 
L 381.42985 208.931198 
L 381.449732 230.86318 
M 382.216224 230.86318 
L 382.23337 221.055631 
L 382.250517 230.86318 
M 383.013637 230.86318 
L 383.03689 185.058131 
L 383.060144 230.86318 
M 383.816234 230.86318 
L 383.84041 175.510711 
L 383.864586 230.86318 
M 384.618864 230.86318 
L 384.64393 164.313672 
L 384.668996 230.86318 
M 385.421148 230.86318 
L 385.44745 145.543241 
L 385.473752 230.86318 
M 386.223891 230.86318 
L 386.25097 139.251685 
L 386.278049 230.86318 
M 387.027734 230.86318 
L 387.05449 141.834373 
L 387.081244 230.86318 
M 387.827459 230.86318 
L 387.85801 111.410597 
L 387.888562 230.86318 
M 388.620198 230.86318 
L 388.62805 225.324447 
L 388.66153 82.335391 
L 388.702862 230.86318 
M 389.437252 230.86318 
L 389.46505 133.827854 
L 389.492843 230.86318 
M 390.240532 230.86318 
L 390.26857 131.651388 
L 390.296609 230.86318 
M 391.04495 230.86318 
L 391.07209 138.759517 
L 391.099231 230.86318 
M 391.849944 230.86318 
L 391.87561 155.323467 
L 391.901277 230.86318 
M 392.655724 230.86318 
L 392.67913 183.595269 
L 392.702537 230.86318 
M 393.458464 230.86318 
L 393.48265 175.386682 
L 393.506837 230.86318 
M 394.263324 230.86318 
L 394.28617 188.746845 
L 394.309016 230.86318 
M 395.075411 230.86318 
L 395.08969 223.746085 
L 395.103969 230.86318 
M 395.87393 230.86318 
L 395.89321 211.995226 
L 395.912491 230.86318 
M 396.691456 230.86318 
L 396.69673 228.234199 
L 396.702004 230.86318 
M 397.043589 230.86318 
L 397.04827 228.529822 
L 397.052952 230.86318 
M 397.498674 230.86318 
L 397.50025 230.077434 
L 397.501827 230.86318 
M 397.832097 230.86318 
L 397.85179 209.920411 
L 397.871483 230.86318 
M 398.633444 230.86318 
L 398.65531 196.553565 
L 398.677177 230.86318 
M 399.436605 230.86318 
L 399.45883 193.852318 
L 399.481056 230.86318 
M 400.239148 230.86318 
L 400.26235 185.53265 
L 400.285553 230.86318 
M 401.041169 230.86318 
L 401.06587 169.17681 
L 401.090572 230.86318 
M 401.844009 230.86318 
L 401.86939 159.76199 
L 401.894771 230.86318 
M 402.64763 230.86318 
L 402.67291 161.259543 
L 402.69819 230.86318 
M 403.448108 230.86318 
L 403.47643 129.362122 
L 403.504753 230.86318 
M 404.24946 230.86318 
L 404.27995 111.910729 
L 404.310441 230.86318 
M 405.053518 230.86318 
L 405.08347 116.240327 
L 405.113423 230.86318 
M 405.856877 230.86318 
L 405.88699 114.963516 
L 405.917103 230.86318 
M 406.663889 230.86318 
L 406.69051 142.938885 
L 406.717134 230.86318 
M 407.468537 230.86318 
L 407.49403 158.052844 
L 407.519524 230.86318 
M 408.271942 230.86318 
L 408.29755 156.248585 
L 408.323159 230.86318 
M 409.075661 230.86318 
L 409.10107 159.341366 
L 409.126479 230.86318 
M 409.880966 230.86318 
L 409.90459 181.430221 
L 409.928215 230.86318 
M 410.684376 230.86318 
L 410.70811 180.308524 
L 410.731844 230.86318 
M 411.48874 230.86318 
L 411.51163 188.35674 
L 411.534521 230.86318 
M 412.294409 230.86318 
L 412.31515 204.041127 
L 412.335892 230.86318 
M 413.09908 230.86318 
L 413.11867 210.449351 
L 413.13826 230.86318 
M 413.452287 230.86318 
L 413.47021 218.046491 
L 413.488133 230.86318 
M 413.904386 230.86318 
L 413.92219 218.527174 
L 413.939994 230.86318 
M 414.253959 230.86318 
L 414.27373 209.514123 
L 414.293501 230.86318 
M 415.057594 230.86318 
L 415.07725 210.110947 
L 415.096906 230.86318 
M 415.858898 230.86318 
L 415.88077 196.512951 
L 415.902643 230.86318 
M 416.661145 230.86318 
L 416.68429 186.065146 
L 416.707435 230.86318 
M 417.464399 230.86318 
L 417.48781 183.545167 
L 417.511222 230.86318 
M 418.266901 230.86318 
L 418.29133 172.55292 
L 418.315759 230.86318 
M 419.068985 230.86318 
L 419.09485 152.032048 
L 419.120716 230.86318 
M 419.872879 230.86318 
L 419.89837 158.082757 
L 419.923862 230.86318 
M 420.672224 230.86318 
L 420.70189 118.563236 
L 420.731557 230.86318 
M 421.473196 230.86318 
L 421.50541 98.056642 
L 421.537625 230.86318 
M 422.277917 230.86318 
L 422.30893 107.731933 
L 422.339943 230.86318 
M 423.083468 230.86318 
L 423.11245 123.981337 
L 423.141434 230.86318 
M 423.888885 230.86318 
L 423.91597 139.308137 
L 423.943056 230.86318 
M 424.693458 230.86318 
L 424.71949 149.129994 
L 424.745523 230.86318 
M 425.497803 230.86318 
L 425.52301 162.311246 
L 425.548218 230.86318 
M 426.301293 230.86318 
L 426.32653 161.883273 
L 426.351768 230.86318 
M 427.105818 230.86318 
L 427.13005 174.867627 
L 427.154282 230.86318 
M 427.911615 230.86318 
L 427.93357 195.903897 
L 427.955525 230.86318 
M 428.715624 230.86318 
L 428.73709 199.377988 
L 428.758557 230.86318 
M 429.521886 230.86318 
L 429.54061 214.60986 
L 429.559334 230.86318 
M 430.681798 230.86318 
L 430.69567 223.948366 
L 430.709543 230.86318 
M 431.479535 230.86318 
L 431.49919 210.114789 
L 431.518846 230.86318 
M 432.283689 230.86318 
L 432.30271 213.239601 
L 432.321731 230.86318 
M 433.08432 230.86318 
L 433.10623 196.232494 
L 433.128141 230.86318 
M 433.885867 230.86318 
L 433.90975 178.737164 
L 433.933634 230.86318 
M 434.688804 230.86318 
L 434.71327 172.098179 
L 434.737737 230.86318 
M 435.491595 230.86318 
L 435.51679 162.482099 
L 435.541986 230.86318 
M 436.293029 230.86318 
L 436.32031 137.908186 
L 436.347593 230.86318 
M 437.095022 230.86318 
L 437.12383 125.495005 
L 437.152639 230.86318 
M 437.897982 230.86318 
L 437.92735 120.842764 
L 437.956717 230.86318 
M 438.677182 230.86318 
L 438.69739 217.485904 
L 438.73087 74.496395 
L 438.784558 230.86318 
M 439.503519 230.86318 
L 439.53439 108.690969 
L 439.565265 230.86318 
M 440.310189 230.86318 
L 440.33791 134.367602 
L 440.365629 230.86318 
M 441.116067 230.86318 
L 441.14143 160.023637 
L 441.166794 230.86318 
M 441.919422 230.86318 
L 441.94495 157.508843 
L 441.970479 230.86318 
M 442.725009 230.86318 
L 442.74847 183.05684 
L 442.771932 230.86318 
M 443.527745 230.86318 
L 443.55199 174.720293 
L 443.576235 230.86318 
M 444.332158 230.86318 
L 444.35551 184.112172 
L 444.378863 230.86318 
M 445.139024 230.86318 
L 445.15903 208.259037 
L 445.179037 230.86318 
M 445.942206 230.86318 
L 445.96255 206.378659 
L 445.982895 230.86318 
M 446.310327 230.86318 
L 446.31409 228.987391 
L 446.317854 230.86318 
M 446.747523 230.86318 
L 446.76607 215.401477 
L 446.784617 230.86318 
M 447.100575 230.86318 
L 447.11761 221.460442 
L 447.134646 230.86318 
M 447.903512 230.86318 
L 447.92113 219.261344 
L 447.938749 230.86318 
M 448.703501 230.86318 
L 448.72465 201.487773 
L 448.745799 230.86318 
M 449.505417 230.86318 
L 449.52817 189.543338 
L 449.550924 230.86318 
M 450.308691 230.86318 
L 450.33169 187.387088 
L 450.35469 230.86318 
M 451.110842 230.86318 
L 451.13521 173.281401 
L 451.159578 230.86318 
M 451.913362 230.86318 
L 451.93873 159.947527 
L 451.964099 230.86318 
M 452.716989 230.86318 
L 452.74225 161.529984 
L 452.767512 230.86318 
M 453.518722 230.86318 
L 453.54577 139.630842 
L 453.572819 230.86318 
M 454.320028 230.86318 
L 454.34929 121.827086 
L 454.378554 230.86318 
M 455.121555 230.86318 
L 455.15281 105.759149 
L 455.184065 230.86318 
" clip-path="url(#p22908beae6)" style="fill: none; stroke: #4269d0; stroke-opacity: 0.88; stroke-width: 0.8; stroke-linecap: square"/>
   </g>
   <g id="line2d_25">
    <path d="M 271.29739 192.662438 
L 271.29739 20.798437 
" clip-path="url(#p22908beae6)" style="fill: none; stroke-dasharray: 2.96,1.28; stroke-dashoffset: 0; stroke: #666666; stroke-width: 0.8"/>
   </g>
   <g id="patch_3">
    <path d="M 53.79457 192.662437 
L 53.79457 20.798437 
" style="fill: none; stroke: #666666; stroke-width: 0.8; stroke-linejoin: miter; stroke-linecap: square"/>
   </g>
   <g id="patch_4">
    <path d="M 53.79457 192.662438 
L 455.55457 192.662438 
" style="fill: none; stroke: #666666; stroke-width: 0.8; stroke-linejoin: miter; stroke-linecap: square"/>
   </g>
   <g id="text_14">
    <text style="font-size: 8.5px; font-family: 'DejaVu Sans', 'Bitstream Vera Sans', 'Computer Modern Sans Serif', 'Lucida Grande', 'Verdana', 'Geneva', 'Lucid', 'Arial', 'Helvetica', 'Avant Garde', sans-serif; fill: #666666" transform="translate(250.757937 24.335955)">folded H7</text>
    <text style="font-size: 8.5px; font-family: 'DejaVu Sans', 'Bitstream Vera Sans', 'Computer Modern Sans Serif', 'Lucida Grande', 'Verdana', 'Geneva', 'Lucid', 'Arial', 'Helvetica', 'Avant Garde', sans-serif; fill: #666666" transform="translate(247.683328 34.537615)">(12993 Hz)</text>
   </g>
   <g id="text_15">
    <text style="font-size: 10px; font-family: 'DejaVu Sans', 'Bitstream Vera Sans', 'Computer Modern Sans Serif', 'Lucida Grande', 'Verdana', 'Geneva', 'Lucid', 'Arial', 'Helvetica', 'Avant Garde', sans-serif; text-anchor: middle; fill: #1a1a1a" x="254.67457" y="14.798437" transform="rotate(-0 254.67457 14.798437)">5001 Hz at drive 0.9: the alias floor at 1× vs the default 4×</text>
   </g>
   <g id="legend_1">
    <g id="line2d_26">
     <path d="M 359.011836 31.932109 
L 367.511836 31.932109 
L 376.011836 31.932109 
" style="fill: none; stroke: #ff725c; stroke-width: 0.8; stroke-linecap: square"/>
    </g>
    <g id="text_16">
     <text style="font-size: 8.5px; font-family: 'DejaVu Sans', 'Bitstream Vera Sans', 'Computer Modern Sans Serif', 'Lucida Grande', 'Verdana', 'Geneva', 'Lucid', 'Arial', 'Helvetica', 'Avant Garde', sans-serif; text-anchor: start" x="382.811836" y="34.907109" transform="rotate(-0 382.811836 34.907109)">oversample 1×</text>
    </g>
    <g id="line2d_27">
     <path d="M 359.011836 44.682773 
L 367.511836 44.682773 
L 376.011836 44.682773 
" style="fill: none; stroke: #4269d0; stroke-opacity: 0.88; stroke-width: 0.8; stroke-linecap: square"/>
    </g>
    <g id="text_17">
     <text style="font-size: 8.5px; font-family: 'DejaVu Sans', 'Bitstream Vera Sans', 'Computer Modern Sans Serif', 'Lucida Grande', 'Verdana', 'Geneva', 'Lucid', 'Arial', 'Helvetica', 'Avant Garde', sans-serif; text-anchor: start" x="382.811836" y="47.657773" transform="rotate(-0 382.811836 47.657773)">oversample 4×</text>
    </g>
   </g>
  </g>
 </g>
 <defs>
  <clipPath id="p22908beae6">
   <rect x="53.79457" y="20.798437" width="401.76" height="171.864"/>
  </clipPath>
 </defs>
</svg>
